<svg height="4946.6665" viewBox="0 0 4946.6665 4946.6665" width="4946.6665" xmlns="http://www.w3.org/2000/svg" xmlns:xlink="http://www.w3.org/1999/xlink"><clipPath id="a"><path d="m18483.3 5315.2c-1643.5 0-2963.2 229.3-3646.8 356.6-2646.8 492.6-4881.03 840.1-6800.64 2574.4-4361.92 3940.8-4149.76 12161.7-816.72 17254.1 395.19 603.9 3723.16 5537 9040.76 6232.1 130.1 17 227.1 26.7 312.1 35.7 207.8 22 688.6 67.8 1357.8 67.8 1089 0 2677.7-121.2 4404-663.2-653.6-729.8-1243.1-1771.1-1604.9-2857.4-631.9 111.9-1281.7 170.3-1942.8 170.3-2912.6 0-5537.7-1185.6-7384-3083.5-990 0-2390.98-22-3585.35-122.6-209.12-17.6-371.79-189-379.37-398.8l-43.71-679.4c-96.34-238.1-185.02-537.2-240.59-904.8 57.61-42.9 115.8-83.4 174.56-121.8l-33.5-520.7c-10.64-294.5 222.22-540.6 516.89-546.2l1467.15-27.8c-4.87-12.9-9.71-25.7-14.52-38.6-286-17.3-567.82-37.2-841.7-60.3-279.36-23.6-496.65-252.5-506.78-532.7l-191.34-2974.5c-14.21-393.4 296.85-722.1 690.47-729.6l305.08-5.8c518.19-4916.6 4827.51-8753.4 10066.71-8753.4 2060.6 0 4011.6 619.5 5653.4 1671.5 377.9-673.5 904.6-1196.7 1503.1-1374.4-90.5-180.9-183-354.5-277.4-519.5l100.4-57.3c99.2 173.5 196.4 356.4 291.4 547.3 11.8-2.6 23.7-5 35.5-7.3 103.4-20.3 208.5-30.1 315-30.1 1695.7 0 3712.1 2484.1 4081.9 4843.9 322.9 2060-837 2570.3-482.9 4697.5 183 1099 623.9 1751.4 1084.1 2330 893.5-4300.2 41.7-9054.6-2873.4-12059.3-694.7-716.10000000001-1316.4-1137.1-1792.3-1454.90000000001-2707.4-1807.7-5641.4-2257.3-7941.6-2257.3m8098.6 19908.1c-207.5 217.2-425.4 425.5-652.9 624.3 126.1 204.5 241.2 435.4 334 706.6 264.8 774 274 1661.8 112.8 2500.4 91.4-72.2 182.4-146.2 273-222.1 211.2-177 468.1-404.4 751.3-685.5-392.6-915.7-656.1-2057.6-818.2-2923.7"/></clipPath><linearGradient id="b" gradientTransform="matrix(-18819.7 20033.9 20033.9 18819.7 33867.80000000001 989.9)" gradientUnits="userSpaceOnUse" spreadMethod="pad" x1="0" x2="1" y1="0" y2="0"><stop offset="0" stop-color="#e8d7ff"/><stop offset="1" stop-color="#fddff8"/></linearGradient><clipPath id="c"><path d="m26407.5 9215.3c-106.5 0-211.6 9.8-315 30.1-11.8 2.3-23.7 4.7-35.5 7.3 649.7 1304.7 1202 2988.1 1657.9 4712.4 911.5 1470.5 1440.5 3170.1 1440.5 4961 0 489.1-39.3 967.7-115.2 1434.6 404 2482.4 601 4330.2 603.4 4353l-114.9 12.1c-2.3-21.7-182.2-1709.4-550.7-4024.5-350.2 1724.5-1201.1 3271-2396.1 4522 162.1 866.1 425.6 2008 818.2 2923.7 355.7 829.7 817.4 1473.8 1405.5 1559.4 46.2 6.7 93.6 10 141.5 10 1537.1 0 3953.6-3377.5 3474.3-6205-192.7-1136.6-775.8-1726.9-1330.8-2424.7-460.2-578.6-901.1-1231-1084.1-2330-354.1-2127.2 805.8-2637.5 482.9-4697.5-369.8-2359.8-2386.2-4843.9-4081.9-4843.9m-464.9 66.9c-598.5 177.7-1125.2 700.9-1503.1 1374.4 1222.4 783.3 2273.2 1806.1 3070.9 2991.9-438.2-1605-960.7-3153.4-1567.8-4366.3"/></clipPath><linearGradient id="d" gradientTransform="matrix(7751.56 -3190.14 -3190.14 -7751.56 24378.8 20807.6)" gradientUnits="userSpaceOnUse" spreadMethod="pad" x1="0" x2="1" y1="0" y2="0"><stop offset="0" stop-color="#a737d5"/><stop offset="1" stop-color="#ef497a"/></linearGradient><clipPath id="e"><path d="m25765.6 8705.4-100.4 57.3c94.4 165 186.9 338.6 277.4 519.5 37.9-11.2 76-21.1 114.4-29.5-95-190.9-192.2-373.8-291.4-547.3"/></clipPath><linearGradient id="f" gradientTransform="matrix(-18819.7 20033.9 20033.9 18819.7 33867.80000000001 989.9)" gradientUnits="userSpaceOnUse" spreadMethod="pad" x1="0" x2="1" y1="0" y2="0"><stop offset="0" stop-color="#f1e7ff"/><stop offset="1" stop-color="#fdecfa"/></linearGradient><clipPath id="g"><path d="m26057 9252.7c-38.4 8.4-76.5 18.3-114.4 29.5 607.1 1212.9 1129.6 2761.3 1567.8 4366.3 70.2 104.4 138.3 209.8 204.5 316.6-455.9-1724.3-1008.2-3407.7-1657.9-4712.4m2983.2 11108c-18.6 114.2-39.4 227.9-62.2 340.6 368.5 2315.1 548.4 4002.8 550.7 4024.5l114.9-12.1c-2.4-22.8-199.4-1870.6-603.4-4353"/></clipPath><linearGradient id="h" gradientTransform="matrix(7751.56 -3190.14 -3190.14 -7751.56 24378.8 20807.6)" gradientUnits="userSpaceOnUse" spreadMethod="pad" x1="0" x2="1" y1="0" y2="0"><stop offset="0" stop-color="#c96fe6"/><stop offset="1" stop-color="#f680a9"/></linearGradient><clipPath id="i"><path d="m25929 25847.6c-208.4 182.2-424.5 356.1-648.4 521.9 702.2 1822.4 509.1 3067.6 186.4 3824.2-407.7 956.1-1085.3 1350.2-1114 1366.5-6.3 3.6-13.3 5.4-20.1 5.4-14.2 0-27.9-7.5-35.5-20.7-11.1-19.6-4.3-44.4 15.3-55.6 6.8-3.8 682.3-396.5 1079.3-1327.6 515.9-1209.7 259.1-2589.2-180.3-3741.6-1292.4 940.5-2826.2 1601.8-4482.8 1895.2 361.8 1086.3 951.3 2127.6 1604.9 2857.4 560.4 625.7 1167.8 1022.5 1719.3 1022.5 45.6 0 90.8-2.7 135.6-8.3 955.8-117.8 1880.2-1536.1 2187.1-3132.3 161.2-838.6 152-1726.4-112.8-2500.4-92.8-271.2-207.9-502.1-334-706.6"/></clipPath><linearGradient id="j" gradientTransform="matrix(-7210.79 -15623.4 -15623.4 7210.79 27583.3 32423.2)" gradientUnits="userSpaceOnUse" spreadMethod="pad" x1="0" x2="1" y1="0" y2="0"><stop offset="0" stop-color="#cb236d"/><stop offset=".900052" stop-color="#59246d"/><stop offset="1" stop-color="#4c246d"/></linearGradient><clipPath id="k"><path d="m21358.1 13688c-12.2-2.4-25.2-2.2-38.1 1.2-45.6 11.9-72.9 58.5-60.9 104.1 1610.1 6152.7 1116.9 12821.9 1111.7 12888.6-3.6 46.9 31.6 88 78.5 91.6 47 3.6 88-31.5 91.6-78.5 5.2-66.9 500.5-6764.8-1116.8-12944.9-8.5-32.7-34.9-55.9-66-62.1z"/></clipPath><linearGradient id="l"><stop offset="0" stop-color="#2b3582"/><stop offset="1" stop-color="#150e42"/></linearGradient><linearGradient id="m" gradientTransform="matrix(-97.3493 -13094.9 -13094.9 97.3493 21995.2 26777.2)" gradientUnits="userSpaceOnUse" spreadMethod="pad" x1="0" x2="1" xlink:href="#l" y1="0" y2="0"/><clipPath id="n"><path d="m25280.6 26369.5c-23 17-45.8 33.7-68.9 50.6 439.4 1152.4 696.2 2531.9 180.3 3741.6-397 931.1-1072.5 1323.8-1079.3 1327.6-19.6 11.2-26.4 36-15.3 55.6 7.6 13.2 21.3 20.7 35.5 20.7 6.8 0 13.8-1.8 20.1-5.4 28.7-16.3 706.3-410.4 1114-1366.5 322.7-756.6 515.8-2001.8-186.4-3824.2"/></clipPath><linearGradient id="o" gradientTransform="matrix(-7210.79 -15623.4 -15623.4 7210.79 27583.3 32423.2)" gradientUnits="userSpaceOnUse" spreadMethod="pad" x1="0" x2="1" y1="0" y2="0"><stop offset="0" stop-color="#e156a0"/><stop offset=".900052" stop-color="#8f57a0"/><stop offset="1" stop-color="#8357a0"/></linearGradient><clipPath id="p"><path d="m18786.1 8985.1c-5239.2 0-9548.52 3836.8-10066.71 8753.4l1388.21-26.4c524-4178.8 4217.2-7416.6 8695.4-7416.6 4837.5 0 8975.7 3943.7 8975.7 8605 0 1630.7-506.7 3133.6-1372.5 4398-385.5 579.9-855.3 1107-1392.4 1568.8-1593.8 1404.9-3736.9 2268.3-6049.7 2306.7-.2 0-.7 0-.8 0-2.1 0-4.6.1-6.7.1-.3 0-.7 0-1.1 0-2.3 0-3.9.1-6.3.1-.4 0-1.1 0-1.6 0-2 .1-3.7.1-5.7.1-.6 0-1.3 0-1.9 0-1.8.1-3.8.1-5.6.1-.6 0-1.3 0-2 0-1.7.1-3.9.1-5.7.1-.4 0-1.2 0-1.7 0-1.7.1-3.9.1-5.6.1-.7 0-1.4 0-2 0-1.8.1-4 .1-5.7.1-.7 0-1.1 0-1.7 0-2.1 0-4.2.1-6.2.1-.4 0-1 0-1.3 0-4.7.1-10.2.1-14.9.1-.5 0-1.4 0-1.8.1-2.1 0-3.7 0-5.7 0-.8 0-1.5 0-2.3 0-1.7 0-3.2.1-5 .1-1 0-1.9 0-2.8 0-1.8 0-2.9 0-4.7 0-1 0-1.9 0-2.9 0-1.5 0-2.9.1-4.3.1-1.2 0-2.1 0-3.2 0-1.5 0-2.9 0-4.4 0-1 0-2 0-3 0-1.5 0-2.9 0-4.4 0-1.1 0-2 0-3.1 0-1.5.1-2.9.1-4.4.1-.9 0-2.1 0-3 0-1.2 0-3.2 0-4.3 0-1.2 0-2 0-3.1 0-1.5 0-3.2 0-4.7 0-.9 0-1.8 0-2.7 0-1.8 0-3.1 0-4.9 0-1 0-1.6 0-2.6 0-2.3 0-5 0-7.3 0-2338.2 0-4462.4-882.8-6033.2-2321.3-31.5 1.7-62.8 3.3-93.8 4.7-6.6 296.8-247.2 536.3-545.6 539.6-198.9 2.1-444.4 3.8-722.2 3.8-2 0-4.1 0-6.1 0 1846.3 1897.9 4471.4 3083.5 7384 3083.5 661.1 0 1310.9-58.4 1942.8-170.3 1656.6-293.4 3190.4-954.7 4482.8-1895.2 23.1-16.9 45.9-33.6 68.9-50.6 223.9-165.8 440-339.7 648.4-521.9 227.5-198.8 445.4-407.1 652.9-624.3 1195-1251 2045.9-2797.5 2396.1-4522 22.8-112.7 43.6-226.4 62.2-340.6 75.9-466.9 115.2-945.5 115.2-1434.6 0-1790.9-529-3490.5-1440.5-4961-66.2-106.8-134.3-212.2-204.5-316.6-797.7-1185.8-1848.5-2208.6-3070.9-2991.9-1641.8-1052-3592.8-1671.5-5653.4-1671.5m-9522.44 13056.30000000002c4.81 12.9 9.65 25.7 14.52 38.6l514.87-9.8c-177.24-8.7-354.17-18.2-529.39-28.8"/></clipPath><linearGradient id="q" gradientTransform="matrix(12217.1 16423 16423 -12217.1 24151.1 25899.1)" gradientUnits="userSpaceOnUse" spreadMethod="pad" x1="0" x2="1" xlink:href="#l" y1="0" y2="0"/><clipPath id="r"><path d="m18803 10295.5c-4478.2 0-8171.4 3237.8-8695.4 7416.6 467-3721.5 3447.9-6696.6 7257.9-7302.9l236.8 1466c549-111.4 1118.7-170 1702.9-170 95.5 0 190.7 1.7 285.6 4.9 81.7-281.8 349.5-474.2 648.5-474.2 40.2 0 80.9 3.5 121.9 10.7 317 55.8 541.5 316.7 552.9 614.7 512.3 100.2 1009.7 246.9 1486.4 435.1 9.2-1.8 18.1-2.7 26.7-2.7 21.9 0 41.7 5.9 58 18.3 9.9 7.5 18.1 17.1 24.5 28.3 2935.6 1205.5 5064.2 3987.4 5064.2 7130.8 0 1411.4-429.1 2716.3-1167.7 3827.4 865.8-1264.4 1372.5-2767.3 1372.5-4398 0-4661.3-4138.2-8605-8975.7-8605m-6033.2 14558.5c1570.8 1438.5 3695 2321.3 6033.2 2321.3-2338.2 0-4462.4-882.8-6033.2-2321.3m12244 13.3c-10.6 9.2-21.3 18.3-32 27.4-1590.5 1388.7-3720.2 2241.2-6017.7 2279.3 2312.8-38.4 4455.9-901.8 6049.7-2306.7m-6050.5 2306.7c-2.3 0-4.5.1-6.7.1 2.1 0 4.6-.1 6.7-.1m-7.8.1c-2.2 0-4 .1-6.3.1 2.4 0 4-.1 6.3-.1m-7.9.1c-1.9.1-3.8.1-5.7.1 2 0 3.7 0 5.7-.1m-7.6.1c-1.9.1-3.7.1-5.6.1 1.8 0 3.8 0 5.6-.1m-7.6.1c-1.9.1-3.7.1-5.7.1 1.8 0 4 0 5.7-.1m-7.4.1c-1.9.1-3.7.1-5.6.1 1.7 0 3.9 0 5.6-.1m-7.6.1c-1.9.1-3.8.1-5.7.1 1.7 0 3.9 0 5.7-.1m-7.4.1c-2.1 0-4.2.1-6.2.1 2 0 4.1-.1 6.2-.1m-7.5.1c-5.1.1-9.8.1-14.9.1 4.7 0 10.2 0 14.9-.1m-16.7.2c-2 0-3.8 0-5.7 0zm-8 0c-1.6 0-3.4.1-5 .1 1.8 0 3.3-.1 5-.1m-7.8.1c-1.6 0-3.1 0-4.7 0zm-7.6 0c-1.4 0-2.9.1-4.3.1 1.4 0 2.8-.1 4.3-.1m-7.5.1c-1.5 0-3 0-4.4 0zm-7.4 0c-1.4 0-2.9 0-4.4 0zm-7.5 0c-1.4.1-2.9.1-4.4.1 1.5 0 2.9 0 4.4-.1m-7.4.1c-1.5 0-2.9 0-4.3 0zm-7.4 0c-1.4 0-3.2 0-4.7 0zm-7.4 0c-1.6 0-3.3 0-4.9 0zm-7.5 0c-2.3 0-4.9 0-7.3 0z"/></clipPath><linearGradient id="s"><stop offset="0" stop-color="#53d8ff"/><stop offset="1" stop-color="#3840f7"/></linearGradient><linearGradient id="t" gradientTransform="matrix(14019.6 -27772.1 -27772.1 -14019.6 13568.1 29347.2)" gradientUnits="userSpaceOnUse" spreadMethod="pad" x1="0" x2="1" xlink:href="#s" y1="0" y2="0"/><clipPath id="u"><path d="m17365.5 10409.2c-3810 606.3-6790.9 3581.4-7257.9 7302.9l1034-19.6c22.6-101 46.2-203.4 70.8-307 15.6-65.6 71.9-114.1 139.7-119.7 48.2-4 110.6-8.7 185.4-13.2 804.3-2695 3140.3-4784.3 6064.8-5377.4zm-1781 2002.9c-87 0-197.9-107.7-259.9-258.5-68.5-166.6-51.4-322.6 38.3-348.4 8.5-2.5 17.4-3.7 26.5-3.7 87 0 197.9 107.8 259.9 258.5 68.5 166.6 51.4 322.7-38.3 348.5-8.5 2.5-17.4 3.6-26.5 3.6m-3037.8 2344.8c-79.7 0-185.9-38.7-282.4-109.1-148.3-108.1-217.8-250-155.1-316.9 21.9-23.4 57.1-34.5 99.8-34.5 79.7 0 185.8 38.7 282.4 109 148.3 108.1 217.7 250 155 316.9-21.9 23.4-57 34.6-99.7 34.6m1128 10021.2c-313.5 36.5-618.2 60.7-904.9 75.9 1570.8 1438.5 3695 2321.3 6033.2 2321.3h7.3 2.6 4.9 2.7 4.7 3.1 4.3 3c1.5 0 3 0 4.4-.1h3.1 4.4 3 4.4 3.2c1.4 0 2.9-.1 4.3-.1h2.9 4.7 2.8c1.6 0 3.4-.1 5-.1h2.3 5.7c.4-.1 1.3-.1 1.8-.1 5.1 0 9.8 0 14.9-.1h1.3c2 0 4.1-.1 6.2-.1h1.7c1.9 0 3.8 0 5.7-.1h2c1.9 0 3.7 0 5.6-.1h1.7c2 0 3.8 0 5.7-.1h2c1.9 0 3.7 0 5.6-.1h1.9c1.9 0 3.8 0 5.7-.1h1.6c2.3 0 4.1-.1 6.3-.1h1.1c2.2 0 4.4-.1 6.7-.1h.8c2297.5-38.1 4427.2-890.6 6017.7-2279.3-1497.8 1274.29999999998-3511.2 2044.29999999998-5676.6 2044.29999999998-2190.1 0-4176.7-823.8-5630.5-2160.9"/></clipPath><linearGradient id="v" gradientTransform="matrix(17647 -17885.5 17885.5 17647 13453.2 24261.1)" gradientUnits="userSpaceOnUse" spreadMethod="pad" x1="0" x2="1" xlink:href="#s" y1="0" y2="0"/><clipPath id="w"><path d="m19305.2 11705.2c-584.2 0-1153.9 58.6-1702.9 170-2924.5 593.1-5260.5 2682.4-6064.8 5377.4 169.5-10.4 402.7-20.2 677.1-20.2 561 0 1294.7 41 2011.7 202 54.8 12.3 84.9 71.3 63 122.6l-11.1 26.2c-7.2 17.2-14.2 34.4-21 51.7 364.7 18.3 656.1 319.9 656.1 690.6v3076.7c0 170.8-58.1 328.2-155.6 453.3 31 96.3 63.3 190 96.9 280.7 26.3-44.5 50.8-88.4 74.6-132.1 82 803.8 389.8 1594.3 607.1 2391.6-253 80.4-512.9 148-774.3 204.6-2.9 73.1-35.5 165.3-94.4 251.8-79.3 116.5-183 188.5-259.8 188.5-21.9 0-41.6-5.8-58-18.2-69.5-52.9-52.6-205 35.9-348.2-239.1 42.5-477.5 76.7-711 103.9 1453.8 1337.1 3440.4 2160.9 5630.5 2160.9 2165.4 0 4178.8-770 5676.6-2044.3 10.7-9.1 21.4-18.2 32-27.4 537.1-461.8 1006.9-988.9 1392.4-1568.8 738.6-1111.1 1167.7-2416 1167.7-3827.4 0-3143.4-2128.6-5925.3-5064.2-7130.8 41.3 72.2 12.1 214.4-76.1 344.1-79.3 116.5-183 188.5-259.8 188.5-21.9 0-41.6-5.8-58-18.2-73.5-55.8-50.4-222.5 51.6-372.4 70.5-103.5 160.2-171.9 233.1-185.9-476.7-188.2-974.1-334.9-1486.4-435.1 1.7 46.4-1.7 93.7-10.7 141.2-59.4 313.6-343.2 533.2-662.6 533.2-40.2 0-81-3.5-121.9-10.7-366.4-64.5-609.1-402.9-542.2-756 3.8-20 8.5-39.6 14.1-58.9-94.9-3.2-190.1-4.9-285.6-4.9m5548.2 3912.2c-71.8 0-125.7-22.8-143.1-67.5-32.7-84.5 76.8-215.4 244.8-292.5 78.9-36.2 156.6-54 220.3-54 71.8 0 125.7 22.7 143 67.5 32.8 84.4-76.8 215.4-244.7 292.4-78.9 36.2-156.7 54.1-220.3 54.1m1360.7 4243.3c-13.2 0-26.4-.4-39.8-1.1-371.8-20.9-655.7-328.2-634-686.5 20.8-345.4 318.1-612 672.6-612 13.2 0 26.4.3 39.8 1.1 371.8 20.8 655.7 328.2 634 686.4-20.8 345.4-318.1 612.1-672.6 612.1m-1588.1 3177.3c-79.6 0-185.8-38.7-282.3-109.1-148.4-108.1-217.8-249.9-155.1-316.9 21.9-23.4 57-34.5 99.7-34.5 79.7 0 185.9 38.7 282.4 109 148.4 108.1 217.8 250 155.1 317-21.9 23.3-57 34.5-99.8 34.5m-3180.4 2494.8c-86.9 0-197.8-107.7-259.9-258.5-68.5-166.6-51.4-322.6 38.3-348.4 8.5-2.5 17.4-3.7 26.5-3.7 87 0 197.9 107.8 259.9 258.5 68.5 166.6 51.4 322.6-38.2 348.5-8.5 2.4-17.4 3.6-26.6 3.6m-3827 836c-40.2 0-80.9-3.5-121.9-10.7-366.4-64.5-609.1-402.9-542.2-756 59.4-313.5 343.2-533.1 662.6-533.1 40.2 0 80.9 3.5 121.9 10.7 366.4 64.5 609.2 402.9 542.3 755.9-59.5 313.6-343.3 533.2-662.7 533.2"/></clipPath><linearGradient id="x" gradientTransform="matrix(-27638.6 -39121.30000000001 -39121.30000000001 27638.6 28199.9 31866)" gradientUnits="userSpaceOnUse" spreadMethod="pad" x1="0" x2="1" xlink:href="#s" y1="0" y2="0"/><clipPath id="y"><path d="m26212.9 18561.1c-354.5 0-651.8 266.6-672.6 612-21.7 358.3 262.2 665.6 634 686.5 13.4.7 26.6 1.1 39.8 1.1 354.5 0 651.8-266.7 672.6-612.1 21.7-358.2-262.2-665.6-634-686.4-13.4-.8-26.6-1.1-39.8-1.1"/></clipPath><linearGradient id="z"><stop offset="0" stop-color="#d9f6ff"/><stop offset="1" stop-color="#d3d5fd"/></linearGradient><linearGradient id="A" gradientTransform="matrix(-27638.6 -39121.30000000001 -39121.30000000001 27638.6 28199.9 31866)" gradientUnits="userSpaceOnUse" spreadMethod="pad" x1="0" x2="1" xlink:href="#z" y1="0" y2="0"/><clipPath id="B"><path d="m20239.3 11235.9c-299 0-566.8 192.4-648.5 474.2 449.6 15.4 891.6 66.7 1323.3 151.2-11.4-298-235.9-558.9-552.9-614.7-41-7.2-81.7-10.7-121.9-10.7"/></clipPath><linearGradient id="C" gradientTransform="matrix(14019.6 -27772.1 -27772.1 -14019.6 13568.1 29347.2)" gradientUnits="userSpaceOnUse" spreadMethod="pad" x1="0" x2="1" xlink:href="#z" y1="0" y2="0"/><clipPath id="D"><path d="m19590.8 11710.1c-5.6 19.3-10.3 38.9-14.1 58.9-66.9 353.1 175.8 691.5 542.2 756 40.9 7.2 81.7 10.7 121.9 10.7 319.4 0 603.2-219.6 662.6-533.2 9-47.5 12.4-94.8 10.7-141.2-431.7-84.5-873.7-135.8-1323.3-151.2"/></clipPath><clipPath id="E"><path d="m17617.1 25069c-319.4 0-603.2 219.6-662.6 533.1-66.9 353.1 175.8 691.5 542.2 756 41 7.2 81.7 10.7 121.9 10.7 319.4 0 603.2-219.6 662.7-533.2 66.9-353-175.9-691.4-542.3-755.9-41-7.2-81.7-10.7-121.9-10.7"/></clipPath><clipPath id="F"><path d="m15389.4 11801.5c-9.1 0-18 1.2-26.5 3.7-89.7 25.8-106.8 181.8-38.3 348.4 62 150.8 172.9 258.5 259.9 258.5 9.1 0 18-1.1 26.5-3.6 89.7-25.8 106.8-181.9 38.3-348.5-62-150.7-172.9-258.5-259.9-258.5"/></clipPath><linearGradient id="G" gradientTransform="matrix(17647 -17885.5 17885.5 17647 13453.2 24261.1)" gradientUnits="userSpaceOnUse" spreadMethod="pad" x1="0" x2="1" xlink:href="#z" y1="0" y2="0"/><clipPath id="H"><path d="m21250.5 24922.2c-9.1 0-18 1.2-26.5 3.7-89.7 25.8-106.8 181.8-38.3 348.4 62.1 150.8 173 258.5 259.9 258.5 9.2 0 18.1-1.2 26.6-3.6 89.6-25.9 106.7-181.9 38.2-348.5-62-150.7-172.9-258.5-259.9-258.5"/></clipPath><clipPath id="I"><path d="m12209 14296.4c-42.7 0-77.9 11.1-99.8 34.5-62.7 66.9 6.8 208.8 155.1 316.9 96.5 70.4 202.7 109.1 282.4 109.1 42.7 0 77.8-11.2 99.7-34.6 62.7-66.9-6.7-208.8-155-316.9-96.6-70.3-202.7-109-282.4-109"/></clipPath><clipPath id="J"><path d="m24288.3 22577.5c-42.7 0-77.8 11.1-99.7 34.5-62.7 67 6.7 208.8 155.1 316.9 96.5 70.4 202.7 109.1 282.3 109.1 42.8 0 77.9-11.2 99.8-34.5 62.7-67-6.7-208.9-155.1-317-96.5-70.3-202.7-109-282.4-109"/></clipPath><clipPath id="K"><path d="m25175.4 15203.4c-63.7 0-141.4 17.8-220.3 54-168 77.1-277.5 208-244.8 292.5 17.4 44.7 71.3 67.5 143.1 67.5 63.6 0 141.4-17.9 220.3-54.1 167.9-77 277.5-208 244.7-292.4-17.3-44.8-71.2-67.5-143-67.5"/></clipPath><clipPath id="L"><path d="m14762 24600.3c-125.3 27.1-250.9 51.6-376.3 73.9-88.5 143.2-105.4 295.3-35.9 348.2 16.4 12.4 36.1 18.2 58 18.2 76.8 0 180.5-72 259.8-188.5 58.9-86.5 91.5-178.7 94.4-251.8"/></clipPath><clipPath id="M"><path d="m22427.2 12293.7c-8.6 0-17.5.9-26.7 2.7 36.5 14.4 73 29.1 109.2 43.9-6.4-11.2-14.6-20.8-24.5-28.3-16.3-12.4-36.1-18.3-58-18.3"/></clipPath><clipPath id="N"><path d="m22400.5 12296.4c-72.9 14-162.6 82.4-233.1 185.9-102 149.9-125.1 316.6-51.6 372.4 16.4 12.4 36.1 18.2 58 18.2 76.8 0 180.5-72 259.8-188.5 88.2-129.7 117.4-271.9 76.1-344.1-36.2-14.8-72.7-29.5-109.2-43.9"/></clipPath><clipPath id="O"><path d="m19075.7 18996.9 5417.3-2603.3c104.9-50.4 227.8 25.3 224.2 138.2l-21.3 672c-4.1 130.7 155.7 203.1 257.5 116.7l3916.9-3323c119.8-101.7 21.3-290.5-134.8-258.3l-5044.8 1037.9c-120.7 24.9-164.4 169-76.5 252.5l590.6 561.2c73 69.4 57.3 186.7-31.5 235.9l-5244.1 2907c-73 40.5-99.2 129.7-58.8 201 39.9 70.6 130.6 98.1 205.3 62.2z"/></clipPath><linearGradient id="P"><stop offset="0" stop-color="#fdf53f"/><stop offset="1" stop-color="#d93c65"/></linearGradient><linearGradient id="Q" gradientTransform="matrix(-23856.2 -19363.9 19363.9 -23856.2 45198.2 33671.9)" gradientUnits="userSpaceOnUse" spreadMethod="pad" x1="0" x2="1" xlink:href="#P" y1="0" y2="0"/><clipPath id="R"><path d="m18510.6 19253.3 10.8 5103.8c-1.8 113-128.1 183.2-230.5 128.2l-609.4-327.3c-118.6-63.7-258.8 39.7-226 166.6l1260.3 4879.8c38.6 149.2 257.9 151.8 300.1 3.4l1364.2-4793.6c32.6-114.7-80.2-218.4-197.6-181.6l-788.8 247.2c-97.5 30.5-198.3-36.8-202.9-135.5l-370.2-5095.3c-3.7-81.1-73.9-144.5-158.2-142.8-83.4 1.7-150.5 66.7-151.8 147.1z"/></clipPath><linearGradient id="S" gradientTransform="matrix(-23856.2 -19363.9 19363.9 -23856.2 39328.7 40903.1)" gradientUnits="userSpaceOnUse" spreadMethod="pad" x1="0" x2="1" xlink:href="#P" y1="0" y2="0"/><clipPath id="T"><path d="m18128 18979.7c0-383.3 322.4-694 720.2-694s720.2 310.7 720.2 694c0 383.2-322.4 694-720.2 694s-720.2-310.8-720.2-694z"/></clipPath><linearGradient id="U" gradientTransform="matrix(-4873.47 -9346.4 -9346.4 4873.47 22358.3 25711.3)" gradientUnits="userSpaceOnUse" spreadMethod="pad" x1="0" x2="1" xlink:href="#P" y1="0" y2="0"/><clipPath id="V"><path d="m11394.2 5600.9c465.5-40.3 1273.5-105.6 1910.4-133.7 382.9-16.8 603.3 20.7 730.3 71.5-.3-14.3-.7-27.8-1.2-40.4-3-67-57.5-120.6-125.2-124.4-1203.5-67.2-2160.7-23.3-2501.5-2.5-70.4 4.3-112.4 80.8-76.4 140.9 18 30 39.9 59.5 63.6 88.6z"/></clipPath><linearGradient id="W" gradientTransform="matrix(-2717.4 0 0 -2717.4 14034.9 5469.4)" gradientUnits="userSpaceOnUse" spreadMethod="pad" x1="0" x2="1" xlink:href="#s" y1="0" y2="0"/><clipPath id="X"><path d="m13304.6 5467.2c-636.9 28.1-1444.9 93.4-1910.4 133.7 457.7 561.5 1910.4 940 1910.4 940h410.3c282.2-406.8 323-794.1 320-1002.2-127-50.8-347.4-88.3-730.3-71.5z"/></clipPath><linearGradient id="Y" gradientTransform="matrix(-2640.82 0 0 -2640.82 14035 6002)" gradientUnits="userSpaceOnUse" spreadMethod="pad" x1="0" x2="1" xlink:href="#l" y1="0" y2="0"/><clipPath id="Z"><path d="m13784 7210.7-38.4-759.8c-4.2-82.3-65.8-151.4-148.2-163.2-82-11.7-191.7-13.2-308.2 25.6-71.6 23.8-124.8 84.2-138 157.8l-132.7 739.6z"/></clipPath><linearGradient id="aa"><stop offset="0" stop-color="#f9b776"/><stop offset="1" stop-color="#f47960"/></linearGradient><linearGradient id="ab" gradientTransform="matrix(-765.438 0 0 -765.438 13784 6745.6)" gradientUnits="userSpaceOnUse" spreadMethod="pad" x1="0" x2="1" xlink:href="#aa" y1="0" y2="0"/><clipPath id="ac"><path d="m18546 4724.4c201.9 36.4 293.2 171.9 331.5 316.8.2-1.3.5-2.6.7-3.9 29.7-152.8-39.1-311.2-176.8-386.6-166.3-91.1-348.3-106.6-489.5-99-151.5 8-290.6 89.1-367.1 218.8l-1.1 1.9c152.1-97.2 365.6-108.7 702.3-48z"/></clipPath><linearGradient id="ad" gradientTransform="matrix(-1041.35 0 0 -1041.35 18885.1 4795.6)" gradientUnits="userSpaceOnUse" spreadMethod="pad" x1="0" x2="1" xlink:href="#s" y1="0" y2="0"/><clipPath id="ae"><path d="m17594.1 6976.6h338.4c515.4 13.6 839-1391.3 945-1935.4-38.3-144.9-129.6-280.4-331.5-316.8-336.7-60.7-550.2-49.2-702.3 48-278.4 473.6-416.5 1167.1-482.8 1571.9-75.5 460.3 233.2 632.3 233.2 632.3z"/></clipPath><linearGradient id="af" gradientTransform="matrix(-1528.5 0 0 -1528.5 18877.5 5831.9)" gradientUnits="userSpaceOnUse" spreadMethod="pad" x1="0" x2="1" xlink:href="#l" y1="0" y2="0"/><clipPath id="ag"><path d="m17889 7681.8 187.9-747.3c23-91.6-20.8-186.4-105.5-229.8-105.1-54-253.1-110.6-389.1-94.2-64 7.7-117.1 52.7-138.2 113l-275.9 786.2z"/></clipPath><linearGradient id="ah" gradientTransform="matrix(-914.776 0 0 -914.776 18083 7144.7)" gradientUnits="userSpaceOnUse" spreadMethod="pad" x1="0" x2="1" xlink:href="#aa" y1="0" y2="0"/><clipPath id="ai"><path d="m11279.6 17524s1679-10495.5 1651.4-10553.1c0 0 463.7-210.8 969.3-26.9 0 0-151.9 5610.6-507.6 7761.8 0 0 2865.5-5014.7 3775.5-7513.5 0 0 474.6 56.6 867.5 315.2 0 0-3085.4 9026.3-3908.6 10228.6z"/></clipPath><linearGradient id="aj" gradientTransform="matrix(-3070.96 -4205.88 -4205.88 3070.96 21038.9 21255.3)" gradientUnits="userSpaceOnUse" spreadMethod="pad" x1="0" x2="1" y1="0" y2="0"><stop offset="0" stop-color="#2b3582"/><stop offset=".54641" stop-color="#1f205f"/><stop offset="1" stop-color="#150e42"/></linearGradient><clipPath id="ak"><path d="m12214.6 17232.4c-274.4 0-507.6 9.8-677.1 20.2-74.8 4.5-137.2 9.2-185.4 13.2-67.8 5.6-124.1 54.1-139.7 119.7-24.6 103.6-48.2 206-70.8 307l3067.1-58.3c4.4-.1 8.9-.1 13.4-.1 11.8 0 23.5.3 35.1.8 6.8-17.3 13.8-34.5 21-51.7l11.1-26.2c21.9-51.3-8.2-110.3-63-122.6-717-161-1450.7-202-2011.7-202m2543.1 4623.1c-133.2 171-340.1 281.7-573.5 284.2-265.6 2.9-593.4 5.2-964.4 5.2-229.5 0-475.5-.9-734-3 116.1 94.8 190.4 239.1 190.4 401.1v2303.1c0 4.3-.1 8.4-.2 12.6 31-1.4 62.3-3 93.8-4.7 286.7-15.2 591.4-39.4 904.9-75.9 233.5-27.2 471.9-61.4 711-103.9 125.4-22.3 251-46.8 376.3-73.9 261.4-56.6 521.3-124.2 774.3-204.6-217.3-797.3-525.1-1587.8-607.1-2391.6-23.8 43.7-48.3 87.6-74.6 132.1-33.6-90.7-65.9-184.4-96.9-280.7m-7430.06 1319.2c-58.76 38.4-116.95 78.9-174.56 121.8 55.57 367.6 144.25 666.7 240.59 904.8z"/></clipPath><linearGradient id="al" gradientTransform="matrix(-11583.4 -10311.5 -10311.5 11583.4 26918.9 35302.9)" gradientUnits="userSpaceOnUse" spreadMethod="pad" x1="0" x2="1" xlink:href="#P" y1="0" y2="0"/><clipPath id="am"><path d="m13776.9 26311.8s123.7-1307.8 232.6-1694.6c16.5-58.7-9-120.6-62.3-151-184.8-105.6-628.1-277.9-1234.5 19.3-98.2 48.1-157.3 150.5-152.7 258.9l53.4 1263.7z"/></clipPath><linearGradient id="an" gradientTransform="matrix(-396.364 2080.91 -2080.91 -396.364 13576.3 23367.1)" gradientUnits="userSpaceOnUse" spreadMethod="pad" x1="0" x2="1" xlink:href="#aa" y1="0" y2="0"/><clipPath id="ao"><path d="m12586.7 27984.8s-395.6-908.8-422.1-1385.7c-26.6-477-129.4-786.5 422.1-882.6 551.5-96 1016.1 178.7 1267.8 653.9 0 0 394.4 732.1 305.9 1031.9-88.4 299.8-1573.7 582.5-1573.7 582.5z"/></clipPath><linearGradient id="ap" gradientTransform="matrix(2261.5 -1730.39 1730.39 2261.5 12503.8 27184.9)" gradientUnits="userSpaceOnUse" spreadMethod="pad" x1="0" x2="1" xlink:href="#aa" y1="0" y2="0"/><clipPath id="aq"><path d="m13666.1 26712-31.4 13.8c-40 17.6-57.1 65.2-37 104 77.8 150.3 229.4 494.6 33.5 574.9-184.5 75.7-384.2 118.2-573.9 178.9-176.1 56.4-518.2 115.4-610 301.2-26.6 53.7 2.5 117.1 31.2 169.7 53.6 98.6 107.2 197.1 160.8 295.7 45.3 83.2 92.2 168.5 164.4 230 165.3 140.7 362.5 17.2 545.4-16.5 680.4-125.6 1130.2-401 1141.4-871.1.7-29.9 32.5-46.5 58-30.9 50.3 30.6 130.7 44.9 238.1-45.4 186.8-157.1 110.4-564.7-299.2-899.9-19.5-16-19.3-46.3 1.7-60.1 74.3-48.3 185-163.3-101.8-316.7-296.7-158.5-518.3-145.5-603.6-131.5-21.2 3.6-34.9 24.1-30.3 45.1l91.1 413.2c5.2 23.4-12.6 45.6-36.6 45.6z"/></clipPath><linearGradient id="ar" gradientTransform="matrix(-2106.23 -2711.77 2711.77 -2106.23 14330.8 28372.5)" gradientUnits="userSpaceOnUse" spreadMethod="pad" x1="0" x2="1" xlink:href="#l" y1="0" y2="0"/><clipPath id="as"><path d="m13648.9 26624.8s151 580.5 411.2 417.7c260.3-162.8-135-650.4-344.3-672.1z"/></clipPath><linearGradient id="at" gradientTransform="matrix(2261.51 -1730.4 1730.4 2261.51 12784.3 27551.5)" gradientUnits="userSpaceOnUse" spreadMethod="pad" x1="0" x2="1" xlink:href="#aa" y1="0" y2="0"/><clipPath id="au"><path d="m12259.6 27830.3c647 1918.3 3331.6 709 2446.4-962.4-929.3 420.8-2011.8 1095.1-2446.4 962.4z"/></clipPath><linearGradient id="av" gradientTransform="matrix(-6189.61 -3425.04 -3425.04 6189.61 28344.7 35809.80000000001)" gradientUnits="userSpaceOnUse" spreadMethod="pad" x1="0" x2="1" xlink:href="#P" y1="0" y2="0"/><clipPath id="aw"><path d="m13841.7 27320.3-1687.2-221.7c-42.8-5.6-85.6 11.6-112.4 45.5-194.6 247.1-442.9 384.2-733.5 434.4-36.8 6.4-37.9 58.9-1.6 67.4l1017.8 237.7c1.1.3 2.3.5 3.4.6 519.4 44.1 1023.8-190.4 1522.8-524.1 16.7-11.2 10.6-37.2-9.3-39.8z"/></clipPath><linearGradient id="ax" gradientTransform="matrix(-6189.55 -3425.01 -3425.01 6189.55 28175.2 36115.80000000001)" gradientUnits="userSpaceOnUse" spreadMethod="pad" x1="0" x2="1" xlink:href="#P" y1="0" y2="0"/><clipPath id="ay"><path d="m14222.1 17634.1c-4.5 0-9 0-13.4.1l-3067.1 58.3-1034 19.6-1388.21 26.4-305.08 5.8c-393.62 7.5-704.68 336.2-690.47 729.6l191.34 2974.5c10.13 280.2 227.42 509.1 506.78 532.7 273.88 23.1 555.7 43 841.7 60.3 175.22 10.6 352.15 20.1 529.39 28.8l946.35-18-178-2421.6c-8-109.9 79.5-201.5 186.9-201.5 6.8 0 13.6.4 20.5 1.1l832.8 89.8c95.4 10.3 167.6 90.8 167.6 186.7v2325.9l379.5-7.2c3.3-.1 6.7-.1 10-.1 123.9 0 237.9 43.7 327.1 116.6 258.5 2.1 504.5 3 734 3 371 0 698.8-2.3 964.4-5.2 233.4-2.5 440.3-113.2 573.5-284.2 97.5-125.1 155.6-282.5 155.6-453.3v-3076.7c0-370.7-291.4-672.3-656.1-690.6-11.6-.5-23.3-.8-35.1-.8"/></clipPath><linearGradient id="az" gradientTransform="matrix(-14376.8 -10030.3 10030.3 -14376.8 17173.4 23859.6)" gradientUnits="userSpaceOnUse" spreadMethod="pad" x1="0" x2="1" xlink:href="#P" y1="0" y2="0"/><clipPath id="aA"><path d="m10748.3 19429.1c-107.4 0-194.9 91.6-186.9 201.5l178 2421.6 1029.8-19.6v-2325.9c0-95.9-72.2-176.4-167.6-186.7l-832.8-89.8c-6.9-.7-13.7-1.1-20.5-1.1"/></clipPath><linearGradient id="aB"><stop offset="0" stop-color="#fef986"/><stop offset="1" stop-color="#e7849e"/></linearGradient><linearGradient id="aC" gradientTransform="matrix(-14376.8 -10030.3 10030.3 -14376.8 17173.4 23859.6)" gradientUnits="userSpaceOnUse" spreadMethod="pad" x1="0" x2="1" xlink:href="#aB" y1="0" y2="0"/><clipPath id="aD"><path d="m13749 20288.9c14.6 0 26.9 11.4 27.8 26.2l43.2 681c1 15.4-10.7 28.6-26.1 29.6-16.2 1.3-28.6-10.7-29.6-26.1l-43.2-681c-1-15.4 10.7-28.6 26.1-29.6z"/></clipPath><linearGradient id="aE" gradientTransform="matrix(1787.11 -2596.88 2596.88 1787.11 13432.9 21147.9)" gradientUnits="userSpaceOnUse" spreadMethod="pad" x1="0" x2="1" xlink:href="#l" y1="0" y2="0"/><clipPath id="aF"><path d="m13660.1 20288.9c14.9 0 27.4 11.9 27.9 27l22.6 694.1c.5 15.4-11.6 28.3-27 28.8-17.8.9-28.3-11.6-28.8-27l-22.7-694c-.5-15.5 11.7-28.4 27-28.9z"/></clipPath><linearGradient id="aG" gradientTransform="matrix(1787.11 -2596.89 2596.89 1787.11 13368.7 21103.7)" gradientUnits="userSpaceOnUse" spreadMethod="pad" x1="0" x2="1" xlink:href="#l" y1="0" y2="0"/><clipPath id="aH"><path d="m13544.9 21010.9h.6zm-5.4-721.9c-15.4.7-27.3 13.8-26.5 29.1 11 233.2 32.1 677.9 32.5 693.1.1 15.2 12.6 27.6 27.9 27.6 15.4 0 27.9-12.5 27.9-27.9 0-11.5-27.1-581.3-32.6-695.4-.7-15-13-26.6-27.9-26.6z"/></clipPath><linearGradient id="aI" gradientTransform="matrix(1787.11 -2596.89 2596.89 1787.11 13291.1 21050.3)" gradientUnits="userSpaceOnUse" spreadMethod="pad" x1="0" x2="1" xlink:href="#l" y1="0" y2="0"/><clipPath id="aJ"><path d="m13354.7 20261c29.9 0 54.7 23.7 55.7 53.9 23.6 672.4 19.5 687.6 16.8 697.6-8.1 29.9-39.1 47.4-68.6 39.2-27.3-7.4-44.4-33.9-40.7-61.3 1.8-40.4-10.7-431.6-19.1-671.6-1-30.8 23.1-56.7 53.9-57.8z"/></clipPath><linearGradient id="aK" gradientTransform="matrix(1787.1 -2596.88 2596.88 1787.1 13157 20958.1)" gradientUnits="userSpaceOnUse" spreadMethod="pad" x1="0" x2="1" xlink:href="#l" y1="0" y2="0"/><clipPath id="aL"><path d="m13233.7 20288.9c15.4 0 27.9 12.5 27.9 27.9v681.1c0 15.4-12.5 27.9-27.9 27.9-15.5 0-27.9-12.5-27.9-27.9v-681.1c0-15.4 12.4-27.9 27.9-27.9z"/></clipPath><linearGradient id="aM" gradientTransform="matrix(1787.11 -2596.88 2596.88 1787.11 13068.6 20897.2)" gradientUnits="userSpaceOnUse" spreadMethod="pad" x1="0" x2="1" xlink:href="#l" y1="0" y2="0"/><clipPath id="aN"><path d="m13135.9 20288.9c15.2 0 27.6 12.1 28 27.3 5.3 236.6 17.8 623.1 29 669.6 4.9 8.8 4.8 19.9-1.1 29-8.4 12.9-25.7 16.4-38.6 8-15.2-10-29.7-19.4-45.2-705.3-.3-15.4 11.9-28.2 27.3-28.6z"/></clipPath><linearGradient id="aO" gradientTransform="matrix(1787.09 -2596.87 2596.87 1787.09 13013.7 20859.4)" gradientUnits="userSpaceOnUse" spreadMethod="pad" x1="0" x2="1" xlink:href="#l" y1="0" y2="0"/><clipPath id="aP"><path d="m13899.2 20226.9c29.5 0 54.2 23.1 55.7 53l37.3 715.1c1.6 30.8-22.1 57-52.9 58.6-29.2 2.1-57.1-22-58.7-52.9l-37.2-715.1c-1.6-30.8 22-57 52.9-58.6.9-.1 1.9-.1 2.9-.1z"/></clipPath><linearGradient id="aQ" gradientTransform="matrix(1787.1 -2596.87 2596.87 1787.1 13524.9 21211.2)" gradientUnits="userSpaceOnUse" spreadMethod="pad" x1="0" x2="1" xlink:href="#l" y1="0" y2="0"/><clipPath id="aR"><path d="m12158.7 22025.3c-3.3 0-6.7 0-10 .1l-379.5 7.2-1029.8 19.6-946.35 18-514.87 9.8-1467.15 27.8c-294.67 5.6-527.53 251.7-516.89 546.2l33.5 520.7 66.03 1026.6 43.71 679.4c7.58 209.8 170.25 381.2 379.37 398.8 1194.37 100.6 2595.35 122.6 3585.35 122.6h6.1c277.8 0 523.3-1.7 722.2-3.8 298.4-3.3 539-242.8 545.6-539.6.1-4.2.2-8.3.2-12.6v-2303.1c0-162-74.3-306.3-190.4-401.1-89.2-72.9-203.2-116.6-327.1-116.6m-1836.2 3367.8c-248.7-4.3-506.49-10.3-767.84-18.6l-136.29-1854.6c-6.05-82.3 59.46-150.8 139.87-150.8 5.07 0 10.2.3 15.38.8l623.48 67.3c71.3 7.7 125.4 67.9 125.4 139.7z"/></clipPath><linearGradient id="aS" gradientTransform="matrix(-10762.5 -7508.69 7508.69 -10762.5 14368.1 26685.8)" gradientUnits="userSpaceOnUse" spreadMethod="pad" x1="0" x2="1" xlink:href="#P" y1="0" y2="0"/><clipPath id="aT"><path d="m9558.24 23369.1c-80.41 0-145.92 68.5-139.87 150.8l136.29 1854.6c261.35 8.3 519.14 14.3 767.84 18.6v-1816.2c0-71.8-54.1-132-125.4-139.7l-623.48-67.3c-5.18-.5-10.31-.8-15.38-.8"/></clipPath><linearGradient id="aU" gradientTransform="matrix(-10762.5 -7508.69 7508.69 -10762.5 14368.1 26685.8)" gradientUnits="userSpaceOnUse" spreadMethod="pad" x1="0" x2="1" xlink:href="#aB" y1="0" y2="0"/><clipPath id="aV"><path d="m11804.5 24012.7c11 0 20.2 8.5 20.9 19.6l32.3 509.8c.8 11.6-8 21.5-19.5 22.2-12.1 1-21.5-8-22.2-19.5l-32.3-509.8c-.8-11.6 8-21.5 19.5-22.2z"/></clipPath><linearGradient id="aW" gradientTransform="matrix(1337.83 -1944.03 1944.03 1337.83 11568 24655.8)" gradientUnits="userSpaceOnUse" spreadMethod="pad" x1="0" x2="1" xlink:href="#l" y1="0" y2="0"/><clipPath id="aX"><path d="m11738 24012.7c11.2 0 20.5 8.9 20.9 20.3l16.9 519.5c.4 11.6-8.7 21.2-20.2 21.6-13.3.7-21.2-8.7-21.6-20.2l-16.9-519.6c-.4-11.5 8.7-21.2 20.2-21.6z"/></clipPath><linearGradient id="aY" gradientTransform="matrix(1337.83 -1944.03 1944.03 1337.83 11519.9 24622.7)" gradientUnits="userSpaceOnUse" spreadMethod="pad" x1="0" x2="1" xlink:href="#l" y1="0" y2="0"/><clipPath id="aZ"><path d="m11651.8 24553.2h.4zm-4-540.4c-11.6.5-20.5 10.3-19.9 21.8 8.3 174.6 24.1 507.5 24.3 518.8.1 11.4 9.4 20.7 20.9 20.7 11.6 0 20.9-9.3 20.9-20.9 0-8.6-20.3-435.1-24.4-520.5-.5-11.3-9.8-20-20.9-20z"/></clipPath><linearGradient id="a0" gradientTransform="matrix(1337.83 -1944.03 1944.03 1337.83 11461.8 24582.8)" gradientUnits="userSpaceOnUse" spreadMethod="pad" x1="0" x2="1" xlink:href="#l" y1="0" y2="0"/><clipPath id="a1"><path d="m11509.4 23991.8c22.4 0 41 17.8 41.7 40.4 17.7 503.4 14.6 514.7 12.6 522.2-6.1 22.4-29.3 35.5-51.4 29.4-20.4-5.6-33.2-25.4-30.4-45.9 1.3-30.2-8-323.1-14.3-502.8-.8-23 17.2-42.4 40.3-43.2z"/></clipPath><linearGradient id="a2" gradientTransform="matrix(1337.83 -1944.02 1944.02 1337.83 11361.4 24513.7)" gradientUnits="userSpaceOnUse" spreadMethod="pad" x1="0" x2="1" xlink:href="#l" y1="0" y2="0"/><clipPath id="a3"><path d="m11418.8 24012.7c11.6 0 20.9 9.4 20.9 20.9v509.9c0 11.5-9.3 20.9-20.9 20.9s-20.9-9.4-20.9-20.9v-509.9c0-11.5 9.3-20.9 20.9-20.9z"/></clipPath><linearGradient id="a4" gradientTransform="matrix(1337.83 -1944.03 1944.03 1337.83 11295.2 24468.1)" gradientUnits="userSpaceOnUse" spreadMethod="pad" x1="0" x2="1" xlink:href="#l" y1="0" y2="0"/><clipPath id="a5"><path d="m11345.6 24012.7c11.4 0 20.7 9.1 20.9 20.5 4 177.1 13.4 466.4 21.8 501.2 3.6 6.6 3.6 14.9-.8 21.7-6.3 9.7-19.3 12.3-29 6-11.3-7.5-22.2-14.5-33.8-528-.2-11.5 8.9-21.1 20.5-21.4z"/></clipPath><linearGradient id="a6" gradientTransform="matrix(1337.82 -1944.02 1944.02 1337.82 11254.1 24439.8)" gradientUnits="userSpaceOnUse" spreadMethod="pad" x1="0" x2="1" xlink:href="#l" y1="0" y2="0"/><clipPath id="a7"><path d="m11917 23966.3c22.1 0 40.6 17.3 41.7 39.7l27.9 535.3c1.2 23.1-16.5 42.7-39.6 43.9-21.9 1.6-42.7-16.5-43.9-39.6l-27.9-535.3c-1.2-23.1 16.5-42.7 39.6-43.9z"/></clipPath><linearGradient id="a8" gradientTransform="matrix(1337.82 -1944.02 1944.02 1337.82 11636.8 24703.2)" gradientUnits="userSpaceOnUse" spreadMethod="pad" x1="0" x2="1" xlink:href="#l" y1="0" y2="0"/><clipPath id="a9"><path d="m7089.64 24066.6c127.43 31.3 413.64 418.5 444.09 277 30.44-141.4-55.87-320.8-43.07-381 12.82-60.1 108.87-397.1 32.53-538.5-55.08-102-163.21-422.9-219.13-593.7-18.57-56.7-33.67-131.5-92.95-124.8-59.27 6.6-105.18 86.4-110.69 145.8-2.22 23.8-138.21 1184-10.78 1215.2z"/></clipPath><linearGradient id="ba" gradientTransform="matrix(-3345.26 -10035 10035 -3345.26 7991.26 25821.2)" gradientUnits="userSpaceOnUse" spreadMethod="pad" x1="0" x2="1" xlink:href="#aa" y1="0" y2="0"/><clipPath id="bb"><path d="m16219.6 23588.9c-156.9 360.1-657.1 798.5-683.3 806.8-217.3-797.3-599.8-1455.8-681.7-2259.5 536.2-984.9 413.3-2146.6 78.4-2711.5 164.7-244.6 357.2-577.6 524.1-991.9 2061.9 1234.2 1245.7 4047.2 762.5 5156.1z"/></clipPath><linearGradient id="bc" gradientTransform="matrix(-11583.4 -10311.5 -10311.5 11583.4 28783.6 33208.2)" gradientUnits="userSpaceOnUse" spreadMethod="pad" x1="0" x2="1" xlink:href="#P" y1="0" y2="0"/><clipPath id="bd"><path d="m13571.2 17539.7-1785.2 38.9s1556.7 440 1653.3 320.2c0 0 964.9 634 1493.7 1525.9 164.7-244.6 357.2-577.6 524.1-991.9-474-278.2-1096.6-761.7-1885.9-893.1z"/></clipPath><linearGradient id="be" gradientTransform="matrix(1297.7 -1946.55 1946.55 1297.7 11798.8 20842.8)" gradientUnits="userSpaceOnUse" spreadMethod="pad" x1="0" x2="1" xlink:href="#aa" y1="0" y2="0"/><clipPath id="bf"><path d="m13621.5 17848.9s36.9-711.3-896.8-608c-507.5 56.1-1326.7 529.2-1326.7 529.2s2135.3 5.7 2223.5 78.8z"/></clipPath><linearGradient id="bg" gradientTransform="matrix(-1271.59 -1907.38 -1907.38 1271.59 14387.5 20528.4)" gradientUnits="userSpaceOnUse" spreadMethod="pad" x1="0" x2="1" xlink:href="#aa" y1="0" y2="0"/><g transform="matrix(.13333333 0 0 -.13333333 0 4946.6667)"><path d="m0 0h37100v37100h-37100z" fill="#fff"/><g clip-path="url(#a)"><path d="m18483.3 5315.2c-1643.5 0-2963.2 229.3-3646.8 356.6-2646.8 492.6-4881.03 840.1-6800.64 2574.4-4361.92 3940.8-4149.76 12161.7-816.72 17254.1 395.19 603.9 3723.16 5537 9040.76 6232.1 130.1 17 227.1 26.7 312.1 35.7 207.8 22 688.6 67.8 1357.8 67.8 1089 0 2677.7-121.2 4404-663.2-653.6-729.8-1243.1-1771.1-1604.9-2857.4-631.9 111.9-1281.7 170.3-1942.8 170.3-2912.6 0-5537.7-1185.6-7384-3083.5-990 0-2390.98-22-3585.35-122.6-209.12-17.6-371.79-189-379.37-398.8l-43.71-679.4c-96.34-238.1-185.02-537.2-240.59-904.8 57.61-42.9 115.8-83.4 174.56-121.8l-33.5-520.7c-10.64-294.5 222.22-540.6 516.89-546.2l1467.15-27.8c-4.87-12.9-9.71-25.7-14.52-38.6-286-17.3-567.82-37.2-841.7-60.3-279.36-23.6-496.65-252.5-506.78-532.7l-191.34-2974.5c-14.21-393.4 296.85-722.1 690.47-729.6l305.08-5.8c518.19-4916.6 4827.51-8753.4 10066.71-8753.4 2060.6 0 4011.6 619.5 5653.4 1671.5 377.9-673.5 904.6-1196.7 1503.1-1374.4-90.5-180.9-183-354.5-277.4-519.5l100.4-57.3c99.2 173.5 196.4 356.4 291.4 547.3 11.8-2.6 23.7-5 35.5-7.3 103.4-20.3 208.5-30.1 315-30.1 1695.7 0 3712.1 2484.1 4081.9 4843.9 322.9 2060-837 2570.3-482.9 4697.5 183 1099 623.9 1751.4 1084.1 2330 893.5-4300.2 41.7-9054.6-2873.4-12059.3-694.7-716.10000000001-1316.4-1137.1-1792.3-1454.90000000001-2707.4-1807.7-5641.4-2257.3-7941.6-2257.3m8098.6 19908.1c-207.5 217.2-425.4 425.5-652.9 624.3 126.1 204.5 241.2 435.4 334 706.6 264.8 774 274 1661.8 112.8 2500.4 91.4-72.2 182.4-146.2 273-222.1 211.2-177 468.1-404.4 751.3-685.5-392.6-915.7-656.1-2057.6-818.2-2923.7" fill="url(#b)"/></g><g clip-path="url(#c)"><path d="m26407.5 9215.3c-106.5 0-211.6 9.8-315 30.1-11.8 2.3-23.7 4.7-35.5 7.3 649.7 1304.7 1202 2988.1 1657.9 4712.4 911.5 1470.5 1440.5 3170.1 1440.5 4961 0 489.1-39.3 967.7-115.2 1434.6 404 2482.4 601 4330.2 603.4 4353l-114.9 12.1c-2.3-21.7-182.2-1709.4-550.7-4024.5-350.2 1724.5-1201.1 3271-2396.1 4522 162.1 866.1 425.6 2008 818.2 2923.7 355.7 829.7 817.4 1473.8 1405.5 1559.4 46.2 6.7 93.6 10 141.5 10 1537.1 0 3953.6-3377.5 3474.3-6205-192.7-1136.6-775.8-1726.9-1330.8-2424.7-460.2-578.6-901.1-1231-1084.1-2330-354.1-2127.2 805.8-2637.5 482.9-4697.5-369.8-2359.8-2386.2-4843.9-4081.9-4843.9m-464.9 66.9c-598.5 177.7-1125.2 700.9-1503.1 1374.4 1222.4 783.3 2273.2 1806.1 3070.9 2991.9-438.2-1605-960.7-3153.4-1567.8-4366.3" fill="url(#d)"/></g><g clip-path="url(#e)"><path d="m25765.6 8705.4-100.4 57.3c94.4 165 186.9 338.6 277.4 519.5 37.9-11.2 76-21.1 114.4-29.5-95-190.9-192.2-373.8-291.4-547.3" fill="url(#f)"/></g><g clip-path="url(#g)"><path d="m26057 9252.7c-38.4 8.4-76.5 18.3-114.4 29.5 607.1 1212.9 1129.6 2761.3 1567.8 4366.3 70.2 104.4 138.3 209.8 204.5 316.6-455.9-1724.3-1008.2-3407.7-1657.9-4712.4m2983.2 11108c-18.6 114.2-39.4 227.9-62.2 340.6 368.5 2315.1 548.4 4002.8 550.7 4024.5l114.9-12.1c-2.4-22.8-199.4-1870.6-603.4-4353" fill="url(#h)"/></g><g clip-path="url(#i)"><path d="m25929 25847.6c-208.4 182.2-424.5 356.1-648.4 521.9 702.2 1822.4 509.1 3067.6 186.4 3824.2-407.7 956.1-1085.3 1350.2-1114 1366.5-6.3 3.6-13.3 5.4-20.1 5.4-14.2 0-27.9-7.5-35.5-20.7-11.1-19.6-4.3-44.4 15.3-55.6 6.8-3.8 682.3-396.5 1079.3-1327.6 515.9-1209.7 259.1-2589.2-180.3-3741.6-1292.4 940.5-2826.2 1601.8-4482.8 1895.2 361.8 1086.3 951.3 2127.6 1604.9 2857.4 560.4 625.7 1167.8 1022.5 1719.3 1022.5 45.6 0 90.8-2.7 135.6-8.3 955.8-117.8 1880.2-1536.1 2187.1-3132.3 161.2-838.6 152-1726.4-112.8-2500.4-92.8-271.2-207.9-502.1-334-706.6" fill="url(#j)"/></g><g clip-path="url(#k)"><path d="m21358.1 13688c-12.2-2.4-25.2-2.2-38.1 1.2-45.6 11.9-72.9 58.5-60.9 104.1 1610.1 6152.7 1116.9 12821.9 1111.7 12888.6-3.6 46.9 31.6 88 78.5 91.6 47 3.6 88-31.5 91.6-78.5 5.2-66.9 500.5-6764.8-1116.8-12944.9-8.5-32.7-34.9-55.9-66-62.1" fill="url(#m)"/></g><g clip-path="url(#n)"><path d="m25280.6 26369.5c-23 17-45.8 33.7-68.9 50.6 439.4 1152.4 696.2 2531.9 180.3 3741.6-397 931.1-1072.5 1323.8-1079.3 1327.6-19.6 11.2-26.4 36-15.3 55.6 7.6 13.2 21.3 20.7 35.5 20.7 6.8 0 13.8-1.8 20.1-5.4 28.7-16.3 706.3-410.4 1114-1366.5 322.7-756.6 515.8-2001.8-186.4-3824.2" fill="url(#o)"/></g><path d="m19780.3 14862.8c-12.8-2.6-26.5 1-36.5 10.8-1703.8 1666-2449.9 3066.5-2217.7 4162.5 206.5 974.5 1144.6 1334.3 1154 1337.8 21.2 7.8 44.5-2.9 52.4-23.9 7.9-21.1-2.8-44.6-23.9-52.5-9-3.4-906.4-348.8-1102.9-1279.3-225.4-1066.8 513.2-2441.6 2195.1-4086.3 16.1-15.8 16.4-41.6.7-57.7-6-6.1-13.4-9.9-21.2-11.4" fill="#f0f0f0"/><g clip-path="url(#p)"><path d="m18786.1 8985.1c-5239.2 0-9548.52 3836.8-10066.71 8753.4l1388.21-26.4c524-4178.8 4217.2-7416.6 8695.4-7416.6 4837.5 0 8975.7 3943.7 8975.7 8605 0 1630.7-506.7 3133.6-1372.5 4398-385.5 579.9-855.3 1107-1392.4 1568.8-1593.8 1404.9-3736.9 2268.3-6049.7 2306.7-.2 0-.7 0-.8 0-2.1 0-4.6.1-6.7.1-.3 0-.7 0-1.1 0-2.3 0-3.9.1-6.3.1-.4 0-1.1 0-1.6 0-2 .1-3.7.1-5.7.1-.6 0-1.3 0-1.9 0-1.8.1-3.8.1-5.6.1-.6 0-1.3 0-2 0-1.7.1-3.9.1-5.7.1-.4 0-1.2 0-1.7 0-1.7.1-3.9.1-5.6.1-.7 0-1.4 0-2 0-1.8.1-4 .1-5.7.1-.7 0-1.1 0-1.7 0-2.1 0-4.2.1-6.2.1-.4 0-1 0-1.3 0-4.7.1-10.2.1-14.9.1-.5 0-1.4 0-1.8.1-2.1 0-3.7 0-5.7 0-.8 0-1.5 0-2.3 0-1.7 0-3.2.1-5 .1-1 0-1.9 0-2.8 0-1.8 0-2.9 0-4.7 0-1 0-1.9 0-2.9 0-1.5 0-2.9.1-4.3.1-1.2 0-2.1 0-3.2 0-1.5 0-2.9 0-4.4 0-1 0-2 0-3 0-1.5 0-2.9 0-4.4 0-1.1 0-2 0-3.1 0-1.5.1-2.9.1-4.4.1-.9 0-2.1 0-3 0-1.2 0-3.2 0-4.3 0-1.2 0-2 0-3.1 0-1.5 0-3.2 0-4.7 0-.9 0-1.8 0-2.7 0-1.8 0-3.1 0-4.9 0-1 0-1.6 0-2.6 0-2.3 0-5 0-7.3 0-2338.2 0-4462.4-882.8-6033.2-2321.3-31.5 1.7-62.8 3.3-93.8 4.7-6.6 296.8-247.2 536.3-545.6 539.6-198.9 2.1-444.4 3.8-722.2 3.8-2 0-4.1 0-6.1 0 1846.3 1897.9 4471.4 3083.5 7384 3083.5 661.1 0 1310.9-58.4 1942.8-170.3 1656.6-293.4 3190.4-954.7 4482.8-1895.2 23.1-16.9 45.9-33.6 68.9-50.6 223.9-165.8 440-339.7 648.4-521.9 227.5-198.8 445.4-407.1 652.9-624.3 1195-1251 2045.9-2797.5 2396.1-4522 22.8-112.7 43.6-226.4 62.2-340.6 75.9-466.9 115.2-945.5 115.2-1434.6 0-1790.9-529-3490.5-1440.5-4961-66.2-106.8-134.3-212.2-204.5-316.6-797.7-1185.8-1848.5-2208.6-3070.9-2991.9-1641.8-1052-3592.8-1671.5-5653.4-1671.5m-9522.44 13056.30000000002c4.81 12.9 9.65 25.7 14.52 38.6l514.87-9.8c-177.24-8.7-354.17-18.2-529.39-28.8" fill="url(#q)"/></g><path d="m28360.9 21106.2c6 0 12 .6 18 2.2 37.4 9.6 59.5 46.4 49.7 82.4-109 394-248 784.8-413.5 1161.6-15.1 34.2-56.3 49.8-91.6 35.8-35.5-14.6-52.1-54.1-37.1-88.4 163-370.8 299.9-755.6 407-1143.7 8.4-30.1 36.7-49.9 67.5-49.9" fill="#fff"/><path d="m26814.6 24153.2c14.6 0 29.4 4.4 42.1 13.5 30.7 22.4 36.9 64.7 13.7 94.3-1874.8 2395.6-4894.7 3825.6-8078.3 3825.6-1359.6 0-2674.6-265.6-3908.5-789.2-35.3-15-51.3-54.9-35.7-88.8 15.4-34.1 56.7-49.5 92.1-34.6 1216 516.3 2512.1 778 3852.1 778 3140 0 6118.1-1410.1 7966.6-3772 13.8-17.6 34.7-26.8 55.9-26.8" fill="#fff"/><g clip-path="url(#r)"><path d="m18803 10295.5c-4478.2 0-8171.4 3237.8-8695.4 7416.6 467-3721.5 3447.9-6696.6 7257.9-7302.9l236.8 1466c549-111.4 1118.7-170 1702.9-170 95.5 0 190.7 1.7 285.6 4.9 81.7-281.8 349.5-474.2 648.5-474.2 40.2 0 80.9 3.5 121.9 10.7 317 55.8 541.5 316.7 552.9 614.7 512.3 100.2 1009.7 246.9 1486.4 435.1 9.2-1.8 18.1-2.7 26.7-2.7 21.9 0 41.7 5.9 58 18.3 9.9 7.5 18.1 17.1 24.5 28.3 2935.6 1205.5 5064.2 3987.4 5064.2 7130.8 0 1411.4-429.1 2716.3-1167.7 3827.4 865.8-1264.4 1372.5-2767.3 1372.5-4398 0-4661.3-4138.2-8605-8975.7-8605m-6033.2 14558.5c1570.8 1438.5 3695 2321.3 6033.2 2321.3-2338.2 0-4462.4-882.8-6033.2-2321.3m12244 13.3c-10.6 9.2-21.3 18.3-32 27.4-1590.5 1388.7-3720.2 2241.2-6017.7 2279.3 2312.8-38.4 4455.9-901.8 6049.7-2306.7m-6050.5 2306.7c-2.3 0-4.5.1-6.7.1 2.1 0 4.6-.1 6.7-.1m-7.8.1c-2.2 0-4 .1-6.3.1 2.4 0 4-.1 6.3-.1m-7.9.1c-1.9.1-3.8.1-5.7.1 2 0 3.7 0 5.7-.1m-7.6.1c-1.9.1-3.7.1-5.6.1 1.8 0 3.8 0 5.6-.1m-7.6.1c-1.9.1-3.7.1-5.7.1 1.8 0 4 0 5.7-.1m-7.4.1c-1.9.1-3.7.1-5.6.1 1.7 0 3.9 0 5.6-.1m-7.6.1c-1.9.1-3.8.1-5.7.1 1.7 0 3.9 0 5.7-.1m-7.4.1c-2.1 0-4.2.1-6.2.1 2 0 4.1-.1 6.2-.1m-7.5.1c-5.1.1-9.8.1-14.9.1 4.7 0 10.2 0 14.9-.1m-16.7.2c-2 0-3.8 0-5.7 0zm-8 0c-1.6 0-3.4.1-5 .1 1.8 0 3.3-.1 5-.1m-7.8.1c-1.6 0-3.1 0-4.7 0zm-7.6 0c-1.4 0-2.9.1-4.3.1 1.4 0 2.8-.1 4.3-.1m-7.5.1c-1.5 0-3 0-4.4 0zm-7.4 0c-1.4 0-2.9 0-4.4 0zm-7.5 0c-1.4.1-2.9.1-4.4.1 1.5 0 2.9 0 4.4-.1m-7.4.1c-1.5 0-2.9 0-4.3 0zm-7.4 0c-1.4 0-3.2 0-4.7 0zm-7.4 0c-1.6 0-3.3 0-4.9 0zm-7.5 0c-2.3 0-4.9 0-7.3 0z" fill="url(#t)"/></g><g clip-path="url(#u)"><path d="m17365.5 10409.2c-3810 606.3-6790.9 3581.4-7257.9 7302.9l1034-19.6c22.6-101 46.2-203.4 70.8-307 15.6-65.6 71.9-114.1 139.7-119.7 48.2-4 110.6-8.7 185.4-13.2 804.3-2695 3140.3-4784.3 6064.8-5377.4zm-1781 2002.9c-87 0-197.9-107.7-259.9-258.5-68.5-166.6-51.4-322.6 38.3-348.4 8.5-2.5 17.4-3.7 26.5-3.7 87 0 197.9 107.8 259.9 258.5 68.5 166.6 51.4 322.7-38.3 348.5-8.5 2.5-17.4 3.6-26.5 3.6m-3037.8 2344.8c-79.7 0-185.9-38.7-282.4-109.1-148.3-108.1-217.8-250-155.1-316.9 21.9-23.4 57.1-34.5 99.8-34.5 79.7 0 185.8 38.7 282.4 109 148.3 108.1 217.7 250 155 316.9-21.9 23.4-57 34.6-99.7 34.6m1128 10021.2c-313.5 36.5-618.2 60.7-904.9 75.9 1570.8 1438.5 3695 2321.3 6033.2 2321.3h7.3 2.6 4.9 2.7 4.7 3.1 4.3 3c1.5 0 3 0 4.4-.1h3.1 4.4 3 4.4 3.2c1.4 0 2.9-.1 4.3-.1h2.9 4.7 2.8c1.6 0 3.4-.1 5-.1h2.3 5.7c.4-.1 1.3-.1 1.8-.1 5.1 0 9.8 0 14.9-.1h1.3c2 0 4.1-.1 6.2-.1h1.7c1.9 0 3.8 0 5.7-.1h2c1.9 0 3.7 0 5.6-.1h1.7c2 0 3.8 0 5.7-.1h2c1.9 0 3.7 0 5.6-.1h1.9c1.9 0 3.8 0 5.7-.1h1.6c2.3 0 4.1-.1 6.3-.1h1.1c2.2 0 4.4-.1 6.7-.1h.8c2297.5-38.1 4427.2-890.6 6017.7-2279.3-1497.8 1274.29999999998-3511.2 2044.29999999998-5676.6 2044.29999999998-2190.1 0-4176.7-823.8-5630.5-2160.9" fill="url(#v)"/></g><g clip-path="url(#w)"><path d="m19305.2 11705.2c-584.2 0-1153.9 58.6-1702.9 170-2924.5 593.1-5260.5 2682.4-6064.8 5377.4 169.5-10.4 402.7-20.2 677.1-20.2 561 0 1294.7 41 2011.7 202 54.8 12.3 84.9 71.3 63 122.6l-11.1 26.2c-7.2 17.2-14.2 34.4-21 51.7 364.7 18.3 656.1 319.9 656.1 690.6v3076.7c0 170.8-58.1 328.2-155.6 453.3 31 96.3 63.3 190 96.9 280.7 26.3-44.5 50.8-88.4 74.6-132.1 82 803.8 389.8 1594.3 607.1 2391.6-253 80.4-512.9 148-774.3 204.6-2.9 73.1-35.5 165.3-94.4 251.8-79.3 116.5-183 188.5-259.8 188.5-21.9 0-41.6-5.8-58-18.2-69.5-52.9-52.6-205 35.9-348.2-239.1 42.5-477.5 76.7-711 103.9 1453.8 1337.1 3440.4 2160.9 5630.5 2160.9 2165.4 0 4178.8-770 5676.6-2044.3 10.7-9.1 21.4-18.2 32-27.4 537.1-461.8 1006.9-988.9 1392.4-1568.8 738.6-1111.1 1167.7-2416 1167.7-3827.4 0-3143.4-2128.6-5925.3-5064.2-7130.8 41.3 72.2 12.1 214.4-76.1 344.1-79.3 116.5-183 188.5-259.8 188.5-21.9 0-41.6-5.8-58-18.2-73.5-55.8-50.4-222.5 51.6-372.4 70.5-103.5 160.2-171.9 233.1-185.9-476.7-188.2-974.1-334.9-1486.4-435.1 1.7 46.4-1.7 93.7-10.7 141.2-59.4 313.6-343.2 533.2-662.6 533.2-40.2 0-81-3.5-121.9-10.7-366.4-64.5-609.1-402.9-542.2-756 3.8-20 8.5-39.6 14.1-58.9-94.9-3.2-190.1-4.9-285.6-4.9m5548.2 3912.2c-71.8 0-125.7-22.8-143.1-67.5-32.7-84.5 76.8-215.4 244.8-292.5 78.9-36.2 156.6-54 220.3-54 71.8 0 125.7 22.7 143 67.5 32.8 84.4-76.8 215.4-244.7 292.4-78.9 36.2-156.7 54.1-220.3 54.1m1360.7 4243.3c-13.2 0-26.4-.4-39.8-1.1-371.8-20.9-655.7-328.2-634-686.5 20.8-345.4 318.1-612 672.6-612 13.2 0 26.4.3 39.8 1.1 371.8 20.8 655.7 328.2 634 686.4-20.8 345.4-318.1 612.1-672.6 612.1m-1588.1 3177.3c-79.6 0-185.8-38.7-282.3-109.1-148.4-108.1-217.8-249.9-155.1-316.9 21.9-23.4 57-34.5 99.7-34.5 79.7 0 185.9 38.7 282.4 109 148.4 108.1 217.8 250 155.1 317-21.9 23.3-57 34.5-99.8 34.5m-3180.4 2494.8c-86.9 0-197.8-107.7-259.9-258.5-68.5-166.6-51.4-322.6 38.3-348.4 8.5-2.5 17.4-3.7 26.5-3.7 87 0 197.9 107.8 259.9 258.5 68.5 166.6 51.4 322.6-38.2 348.5-8.5 2.4-17.4 3.6-26.6 3.6m-3827 836c-40.2 0-80.9-3.5-121.9-10.7-366.4-64.5-609.1-402.9-542.2-756 59.4-313.5 343.2-533.1 662.6-533.1 40.2 0 80.9 3.5 121.9 10.7 366.4 64.5 609.2 402.9 542.3 755.9-59.5 313.6-343.3 533.2-662.7 533.2" fill="url(#x)"/></g><g clip-path="url(#y)"><path d="m26212.9 18561.1c-354.5 0-651.8 266.6-672.6 612-21.7 358.3 262.2 665.6 634 686.5 13.4.7 26.6 1.1 39.8 1.1 354.5 0 651.8-266.7 672.6-612.1 21.7-358.2-262.2-665.6-634-686.4-13.4-.8-26.6-1.1-39.8-1.1" fill="url(#A)"/></g><g clip-path="url(#B)"><path d="m20239.3 11235.9c-299 0-566.8 192.4-648.5 474.2 449.6 15.4 891.6 66.7 1323.3 151.2-11.4-298-235.9-558.9-552.9-614.7-41-7.2-81.7-10.7-121.9-10.7" fill="url(#C)"/></g><g clip-path="url(#D)"><path d="m19590.8 11710.1c-5.6 19.3-10.3 38.9-14.1 58.9-66.9 353.1 175.8 691.5 542.2 756 40.9 7.2 81.7 10.7 121.9 10.7 319.4 0 603.2-219.6 662.6-533.2 9-47.5 12.4-94.8 10.7-141.2-431.7-84.5-873.7-135.8-1323.3-151.2" fill="url(#A)"/></g><g clip-path="url(#E)"><path d="m17617.1 25069c-319.4 0-603.2 219.6-662.6 533.1-66.9 353.1 175.8 691.5 542.2 756 41 7.2 81.7 10.7 121.9 10.7 319.4 0 603.2-219.6 662.7-533.2 66.9-353-175.9-691.4-542.3-755.9-41-7.2-81.7-10.7-121.9-10.7" fill="url(#A)"/></g><g clip-path="url(#F)"><path d="m15389.4 11801.5c-9.1 0-18 1.2-26.5 3.7-89.7 25.8-106.8 181.8-38.3 348.4 62 150.8 172.9 258.5 259.9 258.5 9.1 0 18-1.1 26.5-3.6 89.7-25.8 106.8-181.9 38.3-348.5-62-150.7-172.9-258.5-259.9-258.5" fill="url(#G)"/></g><g clip-path="url(#H)"><path d="m21250.5 24922.2c-9.1 0-18 1.2-26.5 3.7-89.7 25.8-106.8 181.8-38.3 348.4 62.1 150.8 173 258.5 259.9 258.5 9.2 0 18.1-1.2 26.6-3.6 89.6-25.9 106.7-181.9 38.2-348.5-62-150.7-172.9-258.5-259.9-258.5" fill="url(#A)"/></g><g clip-path="url(#I)"><path d="m12209 14296.4c-42.7 0-77.9 11.1-99.8 34.5-62.7 66.9 6.8 208.8 155.1 316.9 96.5 70.4 202.7 109.1 282.4 109.1 42.7 0 77.8-11.2 99.7-34.6 62.7-66.9-6.7-208.8-155-316.9-96.6-70.3-202.7-109-282.4-109" fill="url(#G)"/></g><g clip-path="url(#J)"><path d="m24288.3 22577.5c-42.7 0-77.8 11.1-99.7 34.5-62.7 67 6.7 208.8 155.1 316.9 96.5 70.4 202.7 109.1 282.3 109.1 42.8 0 77.9-11.2 99.8-34.5 62.7-67-6.7-208.9-155.1-317-96.5-70.3-202.7-109-282.4-109" fill="url(#A)"/></g><g clip-path="url(#K)"><path d="m25175.4 15203.4c-63.7 0-141.4 17.8-220.3 54-168 77.1-277.5 208-244.8 292.5 17.4 44.7 71.3 67.5 143.1 67.5 63.6 0 141.4-17.9 220.3-54.1 167.9-77 277.5-208 244.7-292.4-17.3-44.8-71.2-67.5-143-67.5" fill="url(#A)"/></g><g clip-path="url(#L)"><path d="m14762 24600.3c-125.3 27.1-250.9 51.6-376.3 73.9-88.5 143.2-105.4 295.3-35.9 348.2 16.4 12.4 36.1 18.2 58 18.2 76.8 0 180.5-72 259.8-188.5 58.9-86.5 91.5-178.7 94.4-251.8" fill="url(#A)"/></g><g clip-path="url(#M)"><path d="m22427.2 12293.7c-8.6 0-17.5.9-26.7 2.7 36.5 14.4 73 29.1 109.2 43.9-6.4-11.2-14.6-20.8-24.5-28.3-16.3-12.4-36.1-18.3-58-18.3" fill="url(#C)"/></g><g clip-path="url(#N)"><path d="m22400.5 12296.4c-72.9 14-162.6 82.4-233.1 185.9-102 149.9-125.1 316.6-51.6 372.4 16.4 12.4 36.1 18.2 58 18.2 76.8 0 180.5-72 259.8-188.5 88.2-129.7 117.4-271.9 76.1-344.1-36.2-14.8-72.7-29.5-109.2-43.9" fill="url(#A)"/></g><g clip-path="url(#O)"><path d="m19075.7 18996.9 5417.3-2603.3c104.9-50.4 227.8 25.3 224.2 138.2l-21.3 672c-4.1 130.7 155.7 203.1 257.5 116.7l3916.9-3323c119.8-101.7 21.3-290.5-134.8-258.3l-5044.8 1037.9c-120.7 24.9-164.4 169-76.5 252.5l590.6 561.2c73 69.4 57.3 186.7-31.5 235.9l-5244.1 2907c-73 40.5-99.2 129.7-58.8 201 39.9 70.6 130.6 98.1 205.3 62.2" fill="url(#Q)"/></g><path d="m28261.2 14013c50.4 0 96 27.1 119 72.7 27.5 54.6 13.3 117-35.2 155.7l-857.1 682.8c-29.7 23.6-73.8 19.6-98.3-9.1-24.6-28.7-20.4-71 9.3-94.8l857.1-682.8c-1142 251.3-3816.8 813-3872.3 818.4-37.5 4.2-72.7-23.1-76.7-60.1-3.8-36.6 23.4-69.2 60.9-73.7 80.2-12.3 2130-441.6 3863.7-805.9 10-2.1 19.9-3.2 29.6-3.2" fill="#fff"/><g clip-path="url(#R)"><path d="m18510.6 19253.3 10.8 5103.8c-1.8 113-128.1 183.2-230.5 128.2l-609.4-327.3c-118.6-63.7-258.8 39.7-226 166.6l1260.3 4879.8c38.6 149.2 257.9 151.8 300.1 3.4l1364.2-4793.6c32.6-114.7-80.2-218.4-197.6-181.6l-788.8 247.2c-97.5 30.5-198.3-36.8-202.9-135.5l-370.2-5095.3c-3.7-81.1-73.9-144.5-158.2-142.8-83.4 1.7-150.5 66.7-151.8 147.1" fill="url(#S)"/></g><path d="m19961.4 24882.2c8.6 0 17.2 1.5 25.6 4.6 35.5 13.4 53.1 51.7 40 86-25.3 73.9-572.8 2025.3-1034.6 3676.4-16.4 58.4-67.9 96.8-132.3 95.3-63-1.6-114.1-42.4-127.5-101.8l-234.8-1047.4c-8.1-36.3 15.8-72.2 53.5-79.9 37.4-8 74.8 15.1 83.1 51.5l234.9 1047.4c293.8-1092.7 1006.7-3639.3 1027.1-3689.4 10.8-26.5 37.1-42.7 65-42.7" fill="#fff"/><g clip-path="url(#T)"><path d="m18128 18979.7c0-383.3 322.4-694 720.2-694s720.2 310.7 720.2 694c0 383.2-322.4 694-720.2 694s-720.2-310.8-720.2-694" fill="url(#U)"/></g><g clip-path="url(#V)"><path d="m11394.2 5600.9c465.5-40.3 1273.5-105.6 1910.4-133.7 382.9-16.8 603.3 20.7 730.3 71.5-.3-14.3-.7-27.8-1.2-40.4-3-67-57.5-120.6-125.2-124.4-1203.5-67.2-2160.7-23.3-2501.5-2.5-70.4 4.3-112.4 80.8-76.4 140.9 18 30 39.9 59.5 63.6 88.6" fill="url(#W)"/></g><g clip-path="url(#X)"><path d="m13304.6 5467.2c-636.9 28.1-1444.9 93.4-1910.4 133.7 457.7 561.5 1910.4 940 1910.4 940h410.3c282.2-406.8 323-794.1 320-1002.2-127-50.8-347.4-88.3-730.3-71.5" fill="url(#Y)"/></g><g clip-path="url(#Z)"><path d="m13784 7210.7-38.4-759.8c-4.2-82.3-65.8-151.4-148.2-163.2-82-11.7-191.7-13.2-308.2 25.6-71.6 23.8-124.8 84.2-138 157.8l-132.7 739.6z" fill="url(#ab)"/></g><g clip-path="url(#ac)"><path d="m18546 4724.4c201.9 36.4 293.2 171.9 331.5 316.8.2-1.3.5-2.6.7-3.9 29.7-152.8-39.1-311.2-176.8-386.6-166.3-91.1-348.3-106.6-489.5-99-151.5 8-290.6 89.1-367.1 218.8l-1.1 1.9c152.1-97.2 365.6-108.7 702.3-48" fill="url(#ad)"/></g><g clip-path="url(#ae)"><path d="m17594.1 6976.6h338.4c515.4 13.6 839-1391.3 945-1935.4-38.3-144.9-129.6-280.4-331.5-316.8-336.7-60.7-550.2-49.2-702.3 48-278.4 473.6-416.5 1167.1-482.8 1571.9-75.5 460.3 233.2 632.3 233.2 632.3" fill="url(#af)"/></g><g clip-path="url(#ag)"><path d="m17889 7681.8 187.9-747.3c23-91.6-20.8-186.4-105.5-229.8-105.1-54-253.1-110.6-389.1-94.2-64 7.7-117.1 52.7-138.2 113l-275.9 786.2z" fill="url(#ah)"/></g><g clip-path="url(#ai)"><path d="m11279.6 17524s1679-10495.5 1651.4-10553.1c0 0 463.7-210.8 969.3-26.9 0 0-151.9 5610.6-507.6 7761.8 0 0 2865.5-5014.7 3775.5-7513.5 0 0 474.6 56.6 867.5 315.2 0 0-3085.4 9026.3-3908.6 10228.6z" fill="url(#aj)"/></g><g clip-path="url(#ak)"><path d="m12214.6 17232.4c-274.4 0-507.6 9.8-677.1 20.2-74.8 4.5-137.2 9.2-185.4 13.2-67.8 5.6-124.1 54.1-139.7 119.7-24.6 103.6-48.2 206-70.8 307l3067.1-58.3c4.4-.1 8.9-.1 13.4-.1 11.8 0 23.5.3 35.1.8 6.8-17.3 13.8-34.5 21-51.7l11.1-26.2c21.9-51.3-8.2-110.3-63-122.6-717-161-1450.7-202-2011.7-202m2543.1 4623.1c-133.2 171-340.1 281.7-573.5 284.2-265.6 2.9-593.4 5.2-964.4 5.2-229.5 0-475.5-.9-734-3 116.1 94.8 190.4 239.1 190.4 401.1v2303.1c0 4.3-.1 8.4-.2 12.6 31-1.4 62.3-3 93.8-4.7 286.7-15.2 591.4-39.4 904.9-75.9 233.5-27.2 471.9-61.4 711-103.9 125.4-22.3 251-46.8 376.3-73.9 261.4-56.6 521.3-124.2 774.3-204.6-217.3-797.3-525.1-1587.8-607.1-2391.6-23.8 43.7-48.3 87.6-74.6 132.1-33.6-90.7-65.9-184.4-96.9-280.7m-7430.06 1319.2c-58.76 38.4-116.95 78.9-174.56 121.8 55.57 367.6 144.25 666.7 240.59 904.8z" fill="url(#al)"/></g><g clip-path="url(#am)"><path d="m13776.9 26311.8s123.7-1307.8 232.6-1694.6c16.5-58.7-9-120.6-62.3-151-184.8-105.6-628.1-277.9-1234.5 19.3-98.2 48.1-157.3 150.5-152.7 258.9l53.4 1263.7z" fill="url(#an)"/></g><g clip-path="url(#ao)"><path d="m12586.7 27984.8s-395.6-908.8-422.1-1385.7c-26.6-477-129.4-786.5 422.1-882.6 551.5-96 1016.1 178.7 1267.8 653.9 0 0 394.4 732.1 305.9 1031.9-88.4 299.8-1573.7 582.5-1573.7 582.5" fill="url(#ap)"/></g><g clip-path="url(#aq)"><path d="m13666.1 26712-31.4 13.8c-40 17.6-57.1 65.2-37 104 77.8 150.3 229.4 494.6 33.5 574.9-184.5 75.7-384.2 118.2-573.9 178.9-176.1 56.4-518.2 115.4-610 301.2-26.6 53.7 2.5 117.1 31.2 169.7 53.6 98.6 107.2 197.1 160.8 295.7 45.3 83.2 92.2 168.5 164.4 230 165.3 140.7 362.5 17.2 545.4-16.5 680.4-125.6 1130.2-401 1141.4-871.1.7-29.9 32.5-46.5 58-30.9 50.3 30.6 130.7 44.9 238.1-45.4 186.8-157.1 110.4-564.7-299.2-899.9-19.5-16-19.3-46.3 1.7-60.1 74.3-48.3 185-163.3-101.8-316.7-296.7-158.5-518.3-145.5-603.6-131.5-21.2 3.6-34.9 24.1-30.3 45.1l91.1 413.2c5.2 23.4-12.6 45.6-36.6 45.6z" fill="url(#ar)"/></g><g clip-path="url(#as)"><path d="m13648.9 26624.8s151 580.5 411.2 417.7c260.3-162.8-135-650.4-344.3-672.1z" fill="url(#at)"/></g><g clip-path="url(#au)"><path d="m12259.6 27830.3c647 1918.3 3331.6 709 2446.4-962.4-929.3 420.8-2011.8 1095.1-2446.4 962.4" fill="url(#av)"/></g><g clip-path="url(#aw)"><path d="m13841.7 27320.3-1687.2-221.7c-42.8-5.6-85.6 11.6-112.4 45.5-194.6 247.1-442.9 384.2-733.5 434.4-36.8 6.4-37.9 58.9-1.6 67.4l1017.8 237.7c1.1.3 2.3.5 3.4.6 519.4 44.1 1023.8-190.4 1522.8-524.1 16.7-11.2 10.6-37.2-9.3-39.8" fill="url(#ax)"/></g><g clip-path="url(#ay)"><path d="m14222.1 17634.1c-4.5 0-9 0-13.4.1l-3067.1 58.3-1034 19.6-1388.21 26.4-305.08 5.8c-393.62 7.5-704.68 336.2-690.47 729.6l191.34 2974.5c10.13 280.2 227.42 509.1 506.78 532.7 273.88 23.1 555.7 43 841.7 60.3 175.22 10.6 352.15 20.1 529.39 28.8l946.35-18-178-2421.6c-8-109.9 79.5-201.5 186.9-201.5 6.8 0 13.6.4 20.5 1.1l832.8 89.8c95.4 10.3 167.6 90.8 167.6 186.7v2325.9l379.5-7.2c3.3-.1 6.7-.1 10-.1 123.9 0 237.9 43.7 327.1 116.6 258.5 2.1 504.5 3 734 3 371 0 698.8-2.3 964.4-5.2 233.4-2.5 440.3-113.2 573.5-284.2 97.5-125.1 155.6-282.5 155.6-453.3v-3076.7c0-370.7-291.4-672.3-656.1-690.6-11.6-.5-23.3-.8-35.1-.8" fill="url(#az)"/></g><path d="m14210.7 21069.3c5.1-261.8-2.7-677.2-9-945.5-3.3-139.6-125.9-246-264.6-229.8l-998.4 117c-133 15.6-226.7 138.2-206.8 270.6l122.5 817.5c17.4 116.1 117.1 201.9 234.5 201.9h884.7c128.9 0 234.5-102.8 237.1-231.7" fill="#fff"/><g clip-path="url(#aA)"><path d="m10748.3 19429.1c-107.4 0-194.9 91.6-186.9 201.5l178 2421.6 1029.8-19.6v-2325.9c0-95.9-72.2-176.4-167.6-186.7l-832.8-89.8c-6.9-.7-13.7-1.1-20.5-1.1" fill="url(#aC)"/></g><path d="m11260.3 19949.4c-2.6-44.5-39.5-78.9-83.6-78.9-1.6 0-3.2.1-4.9.2-46.2 2.6-81.5 42.2-78.7 88.4l125.5 2162.2c56.4 1.4 112.2 2.6 168.1 3.9z" fill="#fff"/><g clip-path="url(#aD)"><path d="m13749 20288.9c14.6 0 26.9 11.4 27.8 26.2l43.2 681c1 15.4-10.7 28.6-26.1 29.6-16.2 1.3-28.6-10.7-29.6-26.1l-43.2-681c-1-15.4 10.7-28.6 26.1-29.6z" fill="url(#aE)"/></g><g clip-path="url(#aF)"><path d="m13660.1 20288.9c14.9 0 27.4 11.9 27.9 27l22.6 694.1c.5 15.4-11.6 28.3-27 28.8-17.8.9-28.3-11.6-28.8-27l-22.7-694c-.5-15.5 11.7-28.4 27-28.9z" fill="url(#aG)"/></g><g clip-path="url(#aH)"><path d="m13544.9 21010.9h.6zm-5.4-721.9c-15.4.7-27.3 13.8-26.5 29.1 11 233.2 32.1 677.9 32.5 693.1.1 15.2 12.6 27.6 27.9 27.6 15.4 0 27.9-12.5 27.9-27.9 0-11.5-27.1-581.3-32.6-695.4-.7-15-13-26.6-27.9-26.6z" fill="url(#aI)"/></g><g clip-path="url(#aJ)"><path d="m13354.7 20261c29.9 0 54.7 23.7 55.7 53.9 23.6 672.4 19.5 687.6 16.8 697.6-8.1 29.9-39.1 47.4-68.6 39.2-27.3-7.4-44.4-33.9-40.7-61.3 1.8-40.4-10.7-431.6-19.1-671.6-1-30.8 23.1-56.7 53.9-57.8z" fill="url(#aK)"/></g><g clip-path="url(#aL)"><path d="m13233.7 20288.9c15.4 0 27.9 12.5 27.9 27.9v681.1c0 15.4-12.5 27.9-27.9 27.9-15.5 0-27.9-12.5-27.9-27.9v-681.1c0-15.4 12.4-27.9 27.9-27.9" fill="url(#aM)"/></g><g clip-path="url(#aN)"><path d="m13135.9 20288.9c15.2 0 27.6 12.1 28 27.3 5.3 236.6 17.8 623.1 29 669.6 4.9 8.8 4.8 19.9-1.1 29-8.4 12.9-25.7 16.4-38.6 8-15.2-10-29.7-19.4-45.2-705.3-.3-15.4 11.9-28.2 27.3-28.6z" fill="url(#aO)"/></g><g clip-path="url(#aP)"><path d="m13899.2 20226.9c29.5 0 54.2 23.1 55.7 53l37.3 715.1c1.6 30.8-22.1 57-52.9 58.6-29.2 2.1-57.1-22-58.7-52.9l-37.2-715.1c-1.6-30.8 22-57 52.9-58.6.9-.1 1.9-.1 2.9-.1" fill="url(#aQ)"/></g><g clip-path="url(#aR)"><path d="m12158.7 22025.3c-3.3 0-6.7 0-10 .1l-379.5 7.2-1029.8 19.6-946.35 18-514.87 9.8-1467.15 27.8c-294.67 5.6-527.53 251.7-516.89 546.2l33.5 520.7 66.03 1026.6 43.71 679.4c7.58 209.8 170.25 381.2 379.37 398.8 1194.37 100.6 2595.35 122.6 3585.35 122.6h6.1c277.8 0 523.3-1.7 722.2-3.8 298.4-3.3 539-242.8 545.6-539.6.1-4.2.2-8.3.2-12.6v-2303.1c0-162-74.3-306.3-190.4-401.1-89.2-72.9-203.2-116.6-327.1-116.6m-1836.2 3367.8c-248.7-4.3-506.49-10.3-767.84-18.6l-136.29-1854.6c-6.05-82.3 59.46-150.8 139.87-150.8 5.07 0 10.2.3 15.38.8l623.48 67.3c71.3 7.7 125.4 67.9 125.4 139.7z" fill="url(#aS)"/></g><path d="m12150.2 24596.9c3.8-195.9-2-506.9-6.8-707.8-2.4-104.5-94.2-184.1-198-172l-747.4 87.6c-99.6 11.7-169.7 103.5-154.8 202.6l91.7 612c13 86.8 87.6 151.1 175.5 151.1h662.3c96.5 0 175.6-77 177.5-173.5" fill="#fff"/><g clip-path="url(#aT)"><path d="m9558.24 23369.1c-80.41 0-145.92 68.5-139.87 150.8l136.29 1854.6c261.35 8.3 519.14 14.3 767.84 18.6v-1816.2c0-71.8-54.1-132-125.4-139.7l-623.48-67.3c-5.18-.5-10.31-.8-15.38-.8" fill="url(#aU)"/></g><path d="m9941.53 23758.6c-1.92-33.4-29.56-59.1-62.55-59.1-1.23 0-2.45.1-3.68.1-34.57 2-60.99 31.7-58.95 66.3l94.01 1618.5c42.15 1.1 83.96 2 125.74 3z" fill="#fff"/><g clip-path="url(#aV)"><path d="m11804.5 24012.7c11 0 20.2 8.5 20.9 19.6l32.3 509.8c.8 11.6-8 21.5-19.5 22.2-12.1 1-21.5-8-22.2-19.5l-32.3-509.8c-.8-11.6 8-21.5 19.5-22.2z" fill="url(#aW)"/></g><g clip-path="url(#aX)"><path d="m11738 24012.7c11.2 0 20.5 8.9 20.9 20.3l16.9 519.5c.4 11.6-8.7 21.2-20.2 21.6-13.3.7-21.2-8.7-21.6-20.2l-16.9-519.6c-.4-11.5 8.7-21.2 20.2-21.6z" fill="url(#aY)"/></g><g clip-path="url(#aZ)"><path d="m11651.8 24553.2h.4zm-4-540.4c-11.6.5-20.5 10.3-19.9 21.8 8.3 174.6 24.1 507.5 24.3 518.8.1 11.4 9.4 20.7 20.9 20.7 11.6 0 20.9-9.3 20.9-20.9 0-8.6-20.3-435.1-24.4-520.5-.5-11.3-9.8-20-20.9-20z" fill="url(#a0)"/></g><g clip-path="url(#a1)"><path d="m11509.4 23991.8c22.4 0 41 17.8 41.7 40.4 17.7 503.4 14.6 514.7 12.6 522.2-6.1 22.4-29.3 35.5-51.4 29.4-20.4-5.6-33.2-25.4-30.4-45.9 1.3-30.2-8-323.1-14.3-502.8-.8-23 17.2-42.4 40.3-43.2z" fill="url(#a2)"/></g><g clip-path="url(#a3)"><path d="m11418.8 24012.7c11.6 0 20.9 9.4 20.9 20.9v509.9c0 11.5-9.3 20.9-20.9 20.9s-20.9-9.4-20.9-20.9v-509.9c0-11.5 9.3-20.9 20.9-20.9" fill="url(#a4)"/></g><g clip-path="url(#a5)"><path d="m11345.6 24012.7c11.4 0 20.7 9.1 20.9 20.5 4 177.1 13.4 466.4 21.8 501.2 3.6 6.6 3.6 14.9-.8 21.7-6.3 9.7-19.3 12.3-29 6-11.3-7.5-22.2-14.5-33.8-528-.2-11.5 8.9-21.1 20.5-21.4z" fill="url(#a6)"/></g><g clip-path="url(#a7)"><path d="m11917 23966.3c22.1 0 40.6 17.3 41.7 39.7l27.9 535.3c1.2 23.1-16.5 42.7-39.6 43.9-21.9 1.6-42.7-16.5-43.9-39.6l-27.9-535.3c-1.2-23.1 16.5-42.7 39.6-43.9z" fill="url(#a8)"/></g><g clip-path="url(#a9)"><path d="m7089.64 24066.6c127.43 31.3 413.64 418.5 444.09 277 30.44-141.4-55.87-320.8-43.07-381 12.82-60.1 108.87-397.1 32.53-538.5-55.08-102-163.21-422.9-219.13-593.7-18.57-56.7-33.67-131.5-92.95-124.8-59.27 6.6-105.18 86.4-110.69 145.8-2.22 23.8-138.21 1184-10.78 1215.2" fill="url(#ba)"/></g><g clip-path="url(#bb)"><path d="m16219.6 23588.9c-156.9 360.1-657.1 798.5-683.3 806.8-217.3-797.3-599.8-1455.8-681.7-2259.5 536.2-984.9 413.3-2146.6 78.4-2711.5 164.7-244.6 357.2-577.6 524.1-991.9 2061.9 1234.2 1245.7 4047.2 762.5 5156.1" fill="url(#bc)"/></g><g clip-path="url(#bd)"><path d="m13571.2 17539.7-1785.2 38.9s1556.7 440 1653.3 320.2c0 0 964.9 634 1493.7 1525.9 164.7-244.6 357.2-577.6 524.1-991.9-474-278.2-1096.6-761.7-1885.9-893.1" fill="url(#be)"/></g><g clip-path="url(#bf)"><path d="m13621.5 17848.9s36.9-711.3-896.8-608c-507.5 56.1-1326.7 529.2-1326.7 529.2s2135.3 5.7 2223.5 78.8" fill="url(#bg)"/></g></g></svg>