<?xml version="1.0" encoding="UTF-8"?>
<!DOCTYPE svg PUBLIC "-//W3C//DTD SVG 1.0//EN" "http://www.w3.org/TR/2001/REC-SVG-20010904/DTD/svg10.dtd">
<!-- Creator: CorelDRAW 2020 (64-Bit) -->
<svg xmlns="http://www.w3.org/2000/svg" xml:space="preserve" width="210mm" height="210mm" version="1.0" shape-rendering="geometricPrecision" text-rendering="geometricPrecision" image-rendering="optimizeQuality" fill-rule="evenodd" clip-rule="evenodd"
viewBox="0 0 21000 21000"
 xmlns:xlink="http://www.w3.org/1999/xlink"
 xmlns:xodm="http://www.corel.com/coreldraw/odm/2003">
 <defs>
    <linearGradient id="id0" gradientUnits="userSpaceOnUse" x1="10180.23" y1="711.57" x2="10333.04" y2="20058.31">
     <stop offset="0" stop-opacity="1" stop-color="#CA1A6B"/>
     <stop offset="0.239216" stop-opacity="1" stop-color="#DB3381"/>
     <stop offset="0.490196" stop-opacity="1" stop-color="#CA1A6B"/>
     <stop offset="0.6" stop-opacity="1" stop-color="#809E25"/>
     <stop offset="0.780392" stop-opacity="1" stop-color="#247325"/>
     <stop offset="1" stop-opacity="1" stop-color="#046425"/>
    </linearGradient>
 </defs>
 <g id="Layer_x0020_1">
  <metadata id="CorelCorpID_0Corel-Layer"/>
  <g id="_147386528">
   <path fill="url(#id0)" d="M10256.63 725c3617.58,0 6785.67,1862.45 8536.37,4650.6 -1.45,-1.59 -2.93,-3.26 -4.34,-4.74 -140.97,596.9 -819.13,1124.36 -1482.06,980.84l1.94 3.58c-1425.46,-2331.33 -4049.95,-3894.8 -7051.91,-3894.8 -3016.28,0 -5651.13,1578.64 -7071.72,3928.51 7.77,-16.12 15.72,-31.64 23.92,-46.31 -661.96,143.3 -1339.05,-382.39 -1481.4,-978.19 1752.13,-2781.94 4916.47,-4639.49 8529.2,-4639.49zm1991.67 16154.26c527.06,-1766.61 2296.75,-3288.67 4490.82,-3794.46 -1805.49,1054.71 -3563.88,3104.26 -4048.76,4867.94l20.37 -6.16c1274.95,-392.68 2503.01,-1165.35 3671.87,-2372.47 491.8,-555.61 917.98,-1108.55 1247.07,-1738.9 213.86,-427.22 389.2,-875.81 521.75,-1341.62 169.14,-628.35 267,-1370.31 292.12,-1977.97 0.72,-43.5 1.45,-87.01 1.45,-130.68 0,-270.33 -14.48,-537.35 -41.91,-800.68 -13.75,-68.35 -30.52,-124.72 -50.35,-166.98 -121.63,-143.04 -336.35,-148.81 -425.73,-93.62 -3439.77,2124.41 -4966.19,3603.1 -4966.19,3603.1 -495.84,341.07 -731.09,796.9 -705.71,1367.49l-1.57 302.46c0.9,45.67 0.93,89.74 -0.67,130.87l-6.78 1308.96c2.4,274.81 4.58,557.28 2.22,842.72zm-3985.08 236.11c-475.47,-1823.39 -2278.74,-3410.24 -4528.23,-3928.81 1761.2,1028.83 3477.8,3004.35 4011.02,4737.69 -1565.67,-510.55 -2826.27,-1386.11 -3863.41,-2675.14 -1361.71,-1775.59 -2001.8,-3684.96 -1707.45,-5872.33 123.55,-127.32 325.21,-130.6 411.11,-77.55 3439.77,2124.41 4966.19,3603.1 4966.19,3603.1 373.19,256.71 598.73,578.44 676.67,965.17 5,38.25 8.35,77.87 9.84,118.92 27.77,766.47 20.7,1917.69 24.26,3128.95zm11998.26 -6666.21c-1.33,128.63 -4.96,256.43 -10.82,383.4l-22.32 -28.42c6.14,-139.05 9.93,-278.69 9.93,-419.2 0,-1320.02 -273.95,-2578.03 -769.24,-3724.16 -699.18,446.33 -1330.35,924.14 -1781.98,1197.52 -19.7,20.66 -41.94,40.15 -66.93,58.27 -798.13,578.95 -2870.45,2094.23 -6169.54,4487.42 -380.25,387.7 -593.5,878.25 -639.76,1471.65l0.77 1193.94c-5.44,28.77 -8.99,56.99 -10.5,84.6 0,0 0.55,760.02 1.7,2638.92 0.08,143.78 54.39,230.42 -135.33,506.05 -136.08,6.69 -273.02,10.25 -410.83,10.25 -131.19,0 -261.6,-3.24 -391.22,-9.31 -117.95,-170.83 -155.34,-269.74 -165.62,-350.62l2.65 -4098.26c-46.27,-593.4 -259.51,-1083.95 -639.76,-1471.65 -3299.1,-2393.19 -5371.42,-3908.47 -6169.55,-4487.42 -17.98,-13.04 -34.53,-26.79 -49.76,-41.17 -0.75,2.01 -1.5,4.1 -2.25,6.01 -452.18,-271.88 -1088.18,-754.1 -1793.42,-1204.4 -497.56,1148.3 -772.7,2409.2 -772.7,3732.36 0,1004.4 158.51,1972.93 452.45,2883.6 407.8,1362.5 1065.33,2538.01 1972.64,3526.5 1480.69,1590.28 3169.38,2612.1 5066.1,3065.44 1679.66,463.62 3554.01,407.29 5623.05,-169.01 1934.23,-561.47 4191.63,-2161.79 5125.12,-3720.82l0.01 -0.01 -6.43 3801.43c90.17,545.6 1521.84,545.6 1750.24,2.29 -29.11,-453.62 -19.42,-3338.75 3.3,-9325.2zm-10.91 385.27c-19.03,410.53 -61.78,812.4 -128.16,1205.67 58.42,-374.3 101.56,-774.41 128.16,-1205.67z"/>
   <path fill="#CA1A6B" d="M6032.41 7509.79c158.36,-98.97 266.64,-230.85 427.76,-352.51l664.35 -471.23c2124.87,-1310.98 4870.96,-1270.87 6936.51,158.46l604.4 455.61 1019.11 -1107.89c-457.5,-537.14 -1633.1,-1201.62 -2279.27,-1445.77 -2073.9,-783.61 -4161.8,-768.71 -6198.73,148.81 -1382.09,622.56 -1669.31,1126.61 -2254.57,1492.48 71.44,248.89 91.27,221.97 263.01,377.11l817.43 744.93z"/>
   <path fill="#CA1A6B" d="M8198.38 9139.7c313.12,-175.98 369.01,-346.39 936.98,-580.64 842.15,-347.31 1621.77,-336 2447.18,-42.68 434.02,154.23 616.02,359.36 938.41,506.25 172.63,-118.81 817.63,-800.22 909.46,-982.66 -187.93,-127.13 -397.66,-320.67 -630.46,-449.88 -774.01,-429.6 -1584.19,-672.29 -2525.16,-648.73 -1012.18,25.33 -2667.14,635.5 -3068.71,1345.4l501.71 434.13c164.13,154.52 289.32,325.27 490.59,418.81z"/>
   <circle fill="#CA1A6B" transform="matrix(0.0543437 2.03553 -2.03553 0.0543437 10318.2 10420.4)" r="425"/>
  </g>
 </g>
</svg>
