<svg viewBox="0 0 1783.84 1579.98" xmlns="http://www.w3.org/2000/svg"><path d="m110.81 385.61c-42.6 23.5 5.64 73.81 19.2 86.75a340 340 0 0 0 -17.63 47c-8.87-21.75-1.44-44.73-11.15-56.2-10.88-12.85-30.95-18-33 14.87-1.61 26.05 29.52 41.67 42.52 47a288.87 288.87 0 0 0 -10.08 63c-13.84-23.2-8.07-50.53-20.56-62.19-13.67-12.75-36.46-15.81-34.42 20.69 1.69 30.16 41.17 43.2 54.82 46.81a158.14 158.14 0 0 0 1 24.25 492.06 492.06 0 0 0 9.41 50.41c-12.67-20.1-12.23-44-25-53-15.32-10.71-38.31-10.56-31.18 25.3 5.64 28.36 43.36 36.34 58.88 38.43a456.66 456.66 0 0 0 33.07 87.65c-17.63-13.09-33.1-44.84-53.45-51-13.35-4-21.24 2.18-25.54 8.17a20.72 20.72 0 0 0 -3.11 17.59c9.28 34.34 67.12 31.63 84.52 30a432.31 432.31 0 0 0 50.31 76.52c-9.18-6.69-23-16.86-29.92-22.47-10.93-8.84-30.31-15-42.91-10.16-.53.2-1 .41-1.52.64-9.31 4.28-13.64 15-11 24.91 10.4 38.73 77.33 19.22 91.64 14.56.12.14.23.28.35.41 42.64 49.18 81.12 70.9 82.73 71.8l3.33-6c-.37-.21-37-20.92-77.43-66.36 29-57.56 7.95-92.42-8.24-92.57-16.73-.15-34.64 17.93-18.64 41.91 9.29 13.9 15.8 30.67 19.65 42.31a424 424 0 0 1 -51.75-77.64c61.91-59.6 21.62-94.49 2-86.89-19.89 7.69-21.05 23.49-11.71 45.82a102 102 0 0 1 7.58 36.88 450 450 0 0 1 -32.78-85.9c15.14-2.28 53.5-10.84 58.66-39.63 6.44-36-16.55-35.7-31.66-24.7-13.89 10.12-11.37 38.22-28.24 59.62a481.28 481.28 0 0 1 -11.17-57.49c-.06-.33-2.47-17.86.72-46.05 15.46-.38 54.25-4.13 63-31.9 10.94-34.88-11.9-37.5-28.28-28.5-14.62 8-16 34.83-33.87 53.86a315.49 315.49 0 0 1 25.89-87.92c16.05-.51 53.51-4.66 62-31.87 10.94-34.88-11.9-37.51-28.28-28.5-14.82 8.15-16 35.59-34.62 54.67l-.66-.31c1.68-9.73 5.31-30.37 7.55-40.15 3-13.06-.17-32-10.11-40.29a21.87 21.87 0 0 0 -20.92-4.14z" fill="#daeef7" opacity=".5"/><path d="m476.49 217.63c-63 .56-39 87.59-31.53 110.69a439 439 0 0 0 -48.96 42.68c3.28-30.25 25.89-51.88 21.89-70.92-4.49-21.35-24.19-39.57-46.74-3.35-17.86 28.7 8 65.67 19.51 79.79a374 374 0 0 0 -50.29 65.63c-1.5-34.95 21.9-62.55 14.84-83.52-7.73-22.95-31.81-40.47-51.95 2.38-16.65 35.42 20.32 74.58 33.64 87.1-9.3 16.43-13.31 27.12-13.73 28.27a638.53 638.53 0 0 0 -20.36 63.14c-2.06-30.7 13.19-57.73 4.14-75.76-10.87-21.64-37.16-35.62-51.11 9.63-11 35.8 27.05 68.11 43.45 80.06a591.09 591.09 0 0 0 -16.29 120.24c-12-25.77-10.12-71.48-29.52-91-12.73-12.81-25.56-10.59-34.14-6.41a26.87 26.87 0 0 0 -14.38 18.14c-10.56 44.85 57 77.36 77.86 86.23a559.16 559.16 0 0 0 10.18 118.15c-6.35-13.27-15.82-33.36-20.27-44-7-16.81-25.31-35.75-42.65-38-.72-.09-1.43-.16-2.12-.2-13.25-.86-24.79 8.71-27.85 21.63-12 50.54 76.29 69.51 95.47 73l.15.69c18.32 82.28 48.81 130.73 50.09 132.75l7.48-4.77c-.3-.47-29.29-46.61-47.4-123.29 68.52-47.74 65.95-100.44 47.59-110.57-19-10.48-50.51-.89-47 36.28 2 21.56-.88 44.68-3.66 60.32a549.59 549.59 0 0 1 -11.18-120.44c107.25-29.82 82.81-94.38 55.74-97.82-27.4-3.48-38.45 13.82-41.55 45a132.48 132.48 0 0 1 -14.06 46.7 581.72 581.72 0 0 1 15.52-118.08c18.65 6.72 67.65 20.57 91.24-9.07 29.49-37 3.12-50.87-20.88-47.63-22.06 3-36.48 36.57-68.88 50.57a624.15 624.15 0 0 1 22.66-72.41c.14-.41 8.18-21.86 29.17-52 17.85 9.08 64.38 28.69 91.4 2.4 33.93-33 9.52-50.07-14.7-49.89-21.6.17-39.71 29.83-71.76 40.54 18.45-25.21 45.45-55.4 83.64-84.28 18.6 9.29 63.85 27.62 90.33 1.86 33.94-33 9.52-50.07-14.69-49.89-21.91.17-40.21 30.68-73.11 41l-.56-.76c7.91-10.05 24.74-31.34 33.33-41.11 11.45-13 19.46-36.52 13.28-52.14a28.32 28.32 0 0 0 -21.28-17.56z" fill="#fee5bf"/><path d="m245.85 717.53c-15.57-2.81-29.33 1-39.81 10.93-14.6 13.87-22.67 39.63-24 76.56-.33 9.41-.17 18.31.16 25.89-4.34-6.28-9.64-13.52-15.65-20.87-23.38-28.61-45.38-44.24-65.4-46.45-14.34-1.59-27.59 3.73-38.28 15.41-19.51 21.25-23 44.73-9.54 64.42 10.58 15.51 31.26 27.07 56.71 31.73a147.3 147.3 0 0 0 72.64-5.47c2-.68 4.07-1.42 6.07-2.2l3.2-1.23 7.21-2.08q3.1-.89 6.17-1.92a147.32 147.32 0 0 0 61.14-39.6c17.45-19.11 26.91-40.83 26-59.58-1.25-23.83-18.23-40.42-46.62-45.54zm-172.85 112.47c-7-10.2-4.48-22 7.42-34.91a24.5 24.5 0 0 1 10.1-7 18.16 18.16 0 0 1 8-.78c13.17 1.45 30.71 14.81 49.39 37.61 7.37 9 13.69 18 18.27 24.86-39.71 10.03-80.18-.78-93.18-19.78zm195.66-65.72c1.17 23-24.53 56.12-62.27 72.12-.53-8.27-.92-19.22-.5-30.84 1.07-29.46 7-50.71 16.56-59.83a18.29 18.29 0 0 1 6.88-4.25 24.44 24.44 0 0 1 12.31-.5c17.29 3.1 26.36 10.94 27.01 23.28z" fill="#ff5b7e"/><path d="m447.23 1120.46-289.89 97.65a29.82 29.82 0 0 1 -37.78-18.73l-86.14-255.72a29.81 29.81 0 0 1 18.74-37.77l289.89-97.66a29.82 29.82 0 0 1 37.77 18.77l86.18 255.68a29.83 29.83 0 0 1 -18.77 37.78z" fill="#feb546"/><path d="m422.9 954.83-346.41 116.69-40.35-119.78a38.34 38.34 0 0 1 24.1-48.57l273.76-92.17a38.34 38.34 0 0 1 48.57 24.1z" fill="#f4a640"/><path d="m415.62 913.35-358.44 120.74a19.68 19.68 0 0 1 -24.93-12.37l-26.73-79.35a19.68 19.68 0 0 1 12.37-24.94l358.43-120.74a19.69 19.69 0 0 1 24.94 12.37l26.74 79.35a19.69 19.69 0 0 1 -12.38 24.94z" fill="#feb546"/><path d="m210.13 847.73h83.33v329.46h-83.33z" fill="#ff5b7e" transform="matrix(.94765701 -.31929012 .31929012 .94765701 -310.04 133.36)"/><path d="m203.49 971.92h83.33v41.63h-83.33z" fill="#e03268" transform="matrix(.94765701 -.31929012 .31929012 .94765701 -304.1 130.21)"/><path d="m1209.01 607.75h375.4v455.42h-375.4z" fill="#feb546" transform="matrix(.93873386 .34464292 -.34464292 .93873386 373.41 -430.1)"/><path d="m1214.76 575.41h187.7v455.42h-187.7z" fill="#f4a640" transform="matrix(.93873386 .34464292 -.34464292 .93873386 356.87 -401.72)"/><path d="m1351.09 617.93a7.25 7.25 0 0 1 -3.62-9.86c6.07-12.28 20.53-38.88 42.52-63.47 39.66-44.34 84.59-60.17 129.94-45.77 25.16 8 43.85 23.59 55.59 46.4 26.53 51.56 9.79 124.73 3.38 148a7.25 7.25 0 0 1 -9.23 5 7.23 7.23 0 0 1 -4.77-8.79c5.84-21.58 21.65-91.05-2.27-137.52-9.91-19.23-25.74-32.41-47.07-39.18-40.06-12.72-78.67 1.28-114.74 41.62-20.72 23.17-34.6 48.74-40.33 60.25a7.24 7.24 0 0 1 -9.4 3.32z" fill="#daeef7"/><path d="m211.88 992.74c37.94 6.26 67.89 20.15 91.54 38.47-4.42 15.72-9.33 34.54-9.33 34.54l24.8-21.09c81.28 78.9 72.19 214 72.19 214-83.65-12.41-132.24-43.66-159.62-80.66 6.58-9.67 16.54-23.94 16.54-23.94l-24.77 11.65a167.55 167.55 0 0 1 -21.38-59c12.91-6 27.41-13.09 27.41-13.09l-29.67-5.92c-3.73-51.87 12.29-94.96 12.29-94.96z" fill="#55769f"/><path d="m10 1069.43c62.12-8.68 115.52-1.59 161.25 15.45.74 26.63 2.25 58.31 2.25 58.31l28.37-44.89c164.9 83.4 216.35 298.14 216.35 298.14-136.27 21.37-227.14-3.76-287.73-48 5.56-18.26 14.13-45.32 14.13-45.32l-32.93 30.17c-27.27-24.23-47.28-52.57-61.95-81.5 17.21-15.58 36.33-33.7 36.33-33.7l-49.09 5.19c-31.04-78.95-26.98-153.85-26.98-153.85z" fill="#02ccc0"/><path d="m130.45 1348.43c5.56-18.26 14.13-45.32 14.13-45.32l-32.93 30.17c-27.27-24.23-47.28-52.57-61.95-81.5 17.21-15.58 36.33-33.7 36.33-33.7l-49.09 5.19c-31-78.94-27-153.84-27-153.84 201.94 80.4 408.22 327 408.22 327-136.25 21.38-227.16-3.75-287.71-48z" fill="#06bfad"/><path d="m0 1348.46c28.6-30.25 59.21-48.71 90-58.84 11.42 13.5 25.34 29.29 25.34 29.29l-3.91-35c120-25.12 235.72 64.85 235.72 64.85-61.76 67.56-119.28 92.21-169 94.38-4.69-11.76-11.46-29.34-11.46-29.34l-4.56 29.29a181.46 181.46 0 0 1 -65.89-16.57c2.46-15.2 4.86-32.52 4.86-32.52l-23.3 23c-48.8-28.06-77.8-68.54-77.8-68.54z" fill="#ff5b7e"/><path d="m178.1 1443.11c-4.69-11.76-11.46-29.34-11.46-29.34l-4.56 29.29a181.46 181.46 0 0 1 -65.89-16.57c2.46-15.2 4.86-32.52 4.86-32.52l-23.3 23c-48.75-28.03-77.75-68.51-77.75-68.51 138-42 347.13.27 347.13.27-61.76 67.56-119.28 92.21-169.03 94.38z" fill="#e03268"/><path d="m231.46 1178c6.58-9.67 16.54-23.94 16.54-23.94l-24.77 11.65a167.55 167.55 0 0 1 -21.38-59c12.91-6 27.41-13.09 27.41-13.09l-29.67-5.92c-3.73-51.86 12.29-95 12.29-95 103.5 83.91 179.2 265.88 179.2 265.88-83.65-12.33-132.24-43.58-159.62-80.58z" fill="#07085b"/><path d="m1384.55 1018.76 201.39-277a23.11 23.11 0 0 1 32.29-5.1l156.09 113.49a23.12 23.12 0 0 1 5.1 32.29l-201.39 277a23.14 23.14 0 0 1 -32.3 5.1l-156.08-113.5a23.12 23.12 0 0 1 -5.1-32.28z" fill="#ff5b7e"/><path d="m1417.05 941.54h388.68v60.92h-388.68z" fill="#333" transform="matrix(-.58806762 .80881177 -.80881177 -.58806762 3345.19 240.38)"/><path d="m1559.66 881.3 78.24-107.6a3.06 3.06 0 0 1 4.28-.67l.74.53a3.06 3.06 0 0 1 .67 4.28l-78.24 107.6a3.07 3.07 0 0 1 -4.28.68l-.73-.54a3.07 3.07 0 0 1 -.68-4.28z" fill="#333"/><path d="m1559.34 852.28 64.54-88.77a3.08 3.08 0 0 1 4.29-.68l.73.54a3.07 3.07 0 0 1 .68 4.28l-64.58 88.77a3.06 3.06 0 0 1 -4.28.67l-.73-.53a3.06 3.06 0 0 1 -.65-4.28z" fill="#333"/><path d="m1531.63 860.92 78.24-107.6a3.07 3.07 0 0 1 4.28-.68l.74.54a3.06 3.06 0 0 1 .67 4.28l-78.24 107.6a3.07 3.07 0 0 1 -4.28.68l-.73-.54a3.06 3.06 0 0 1 -.68-4.28z" fill="#333"/><path d="m1423.16 1010.1 24.59-33.83a13.48 13.48 0 0 1 18.82-3l11.94 8.68a13.49 13.49 0 0 1 3 18.82l-24.6 33.83a13.47 13.47 0 0 1 -18.82 3l-11.93-8.67a13.47 13.47 0 0 1 -3-18.83z" fill="#333"/><path d="m1494.75 903c-32.37 12.91-56.19 31-73.56 51.85 7 13 15 28.76 15 28.76l-26.05-13.86c-56.62 85.65-22.33 203.45-22.33 203.45 71.65-27.2 108.59-64.34 125.64-102.38-7.7-7.28-19.29-18-19.29-18l24.2 5.5a152.11 152.11 0 0 0 7.46-56.39c-12.6-2.79-26.82-6.27-26.82-6.27l25.13-11c-6.82-46.66-29.38-81.66-29.38-81.66z" fill="#55769f"/><path d="m1513.41 1070.81c-7.7-7.28-19.29-18-19.29-18l24.2 5.5a152.11 152.11 0 0 0 7.46-56.39c-12.6-2.79-26.82-6.27-26.82-6.27l25.13-11c-6.78-46.65-29.34-81.65-29.34-81.65-75.32 94.4-107 270.2-107 270.2 71.67-27.2 108.61-64.35 125.66-102.39z" fill="#07085b"/><path d="m1772.66 977.67c-72.57-11-135.15-3.42-188.89 15.9-1.23 31.15-3.42 68.2-3.42 68.2l-32.59-52.91c-194.07 95.36-257.17 345.93-257.17 345.93 159.16 26.85 265.83-1.33 337.32-52.3-6.26-21.43-15.92-53.21-15.92-53.21l38.12 35.75c32.24-28 56-60.87 73.59-94.53-19.93-18.46-42.06-39.93-42.06-39.93l57.38 6.74c37.33-91.95 33.64-179.64 33.64-179.64z" fill="#02ccc0"/><path d="m1627.91 1302.49c-6.26-21.43-15.92-53.21-15.92-53.21l38.12 35.75c32.24-28 56-60.87 73.59-94.53-19.93-18.46-42.06-39.93-42.06-39.93l57.38 6.74c37.33-92 33.64-179.64 33.64-179.64-237.37 91.35-482.07 377.12-482.07 377.12 159.16 26.85 265.83-1.33 337.32-52.3z" fill="#06bfad"/><path d="m1720.66 1312.47c-38.37-30-77-46-114.37-52.41-10.87 17.61-24.22 38.31-24.22 38.31l-1.58-41.22c-143.28-8.15-261.49 116.1-261.49 116.1 83.24 67.42 154.09 85.92 212 79.77 3.37-14.42 8.15-36 8.15-36l10.37 33.1c27.77-5.66 52.25-16.91 73.37-30.65-5.5-17.16-11.29-36.79-11.29-36.79l31 22.61c51.59-40.93 78.06-92.82 78.06-92.82z" fill="#feb546"/><path d="m1531.06 1453c3.37-14.42 8.15-36 8.15-36l10.37 33.1c27.77-5.66 52.25-16.91 73.37-30.65-5.5-17.16-11.29-36.79-11.29-36.79l31 22.61c51.56-41 78-92.87 78-92.87-167-24.6-401.64 60.78-401.64 60.78 83.24 67.49 154.09 85.99 212.04 79.82z" fill="#f4a640"/><path d="m1226.34 107.6s-1.4 13.86-12.34 14.82c10.94 1 12.34 14.82 12.34 14.82s1.41-13.86 12.34-14.82c-10.93-.96-12.34-14.82-12.34-14.82z" fill="#feb546"/><path d="m990.14 557.06s-2.37 23.37-20.81 25c18.44 1.61 20.81 25 20.81 25s2.37-23.37 20.82-25c-18.45-1.63-20.82-25-20.82-25z" fill="#feb546"/><path d="m1622.61 291s-2.39 23.56-21 25.19c18.59 1.63 21 25.19 21 25.19s2.39-23.56 21-25.19c-18.61-1.67-21-25.19-21-25.19z" fill="#07085b"/><path d="m1351.16 377.23s-2.59 25.45-22.67 27.21c20.08 1.76 22.67 27.21 22.67 27.21s2.58-25.45 22.66-27.21c-20.08-1.76-22.66-27.21-22.66-27.21z" fill="#02ccc0"/><path d="m774.36 110s-2.58 25.46-22.66 27.22c20.08 1.76 22.66 27.21 22.66 27.21s2.64-25.43 22.64-27.19c-20-1.76-22.64-27.24-22.64-27.24z" fill="#02ccc0"/><path d="m1040.13 0s-2.58 25.45-22.66 27.21c20.08 1.77 22.66 27.22 22.66 27.22s2.58-25.45 22.67-27.22c-20.09-1.76-22.67-27.21-22.67-27.21z" fill="#07085b"/><path d="m1468.37 32s-2.58 25.45-22.67 27.21c20.09 1.76 22.67 27.22 22.67 27.22s2.63-25.49 22.63-27.25c-20-1.76-22.63-27.18-22.63-27.18z" fill="#ff5b7e"/><path d="m750.26 384.54s-1.47 14.53-12.94 15.53c11.47 1 12.94 15.54 12.94 15.54s1.47-14.53 12.94-15.54c-11.47-1-12.94-15.53-12.94-15.53z" fill="#ff5b7e"/><rect fill="#333" height="755.4" rx="35.88" width="1033.22" x="363.49" y="687.14"/><path d="m401.73 716.63h921.87a0 0 0 0 1 0 0v696.43a0 0 0 0 1 0 0h-921.87a11.44 11.44 0 0 1 -11.44-11.44v-673.56a11.44 11.44 0 0 1 11.44-11.44z" fill="#daeef7"/><path d="m1387.31 1064.84a26.2 26.2 0 1 1 -26.2-26.2 26.2 26.2 0 0 1 26.2 26.2z" fill="#daeef7" opacity=".3"/><path d="m428.07 808.97h851.68v592.15h-851.68z" fill="#fff"/><path d="m1368.92 1075.76h-15.62a3.1 3.1 0 0 1 -3.11-3.1v-15.66a3.1 3.1 0 0 1 3.11-3.1h15.62a3.1 3.1 0 0 1 3.1 3.1v15.63a3.1 3.1 0 0 1 -3.1 3.13zm-15.62-21a2.26 2.26 0 0 0 -2.3 2.24v15.63a2.26 2.26 0 0 0 2.26 2.26h15.62a2.26 2.26 0 0 0 2.26-2.26v-15.63a2.26 2.26 0 0 0 -2.26-2.26z" fill="#daeef7"/><path d="m1279.74 825.21v-43.86a27.21 27.21 0 0 0 -27.21-27.21h-797.25a27.21 27.21 0 0 0 -27.21 27.21v43.86z" fill="#ff5b7e"/><rect fill="#fff" height="34.52" rx="15.04" width="366.61" x="876.58" y="772.41"/><path d="m498.43 789.67a15 15 0 1 1 -15-15 15 15 0 0 1 15 15z" fill="#fff"/><path d="m564 789.67a15 15 0 1 1 -15-15 15 15 0 0 1 15 15z" fill="#fff"/><path d="m629.48 789.67a15 15 0 1 1 -15-15 15 15 0 0 1 15 15z" fill="#fff"/><rect fill="#daeef7" height="383.4" rx="22.65" width="215.52" x="467.53" y="878.45"/><path d="m633.1 1049.38c10.38 37.72-25.52 79.53-59.19 79.15-38.26-.43-44.84 4.67-48.89 1.09-5.81-5.13 2.43-1.25-6.68-35.42-13.88-52 28.93-86 69.74-82.3 28.06 2.55 32.62-6 38.19-.74 3.98 3.84-1.78 6.92 6.83 38.22z" fill="#feb546"/><path d="m573.91 1128.53c33.67.38 69.57-41.43 59.19-79.15-8.61-31.3-2.85-34.42-6.83-38.22l-101.27 118.46c4.07 3.58 10.65-1.52 48.91-1.09z" fill="#f0e5cc"/><rect fill="#daeef7" height="383.4" rx="22.65" width="215.53" x="746.14" y="878.45"/><path d="m858 1022.14c9.23 1.19 29.41-4.53 41.82 5.71 10.79 8.91 15.52 27.83 8.47 45.46-7.91 19.78-20.68 30.52-32.24 33.67-9.42 2.58-28.38 2.76-37.32-1.66-9.42-4.65-29.91-22-31.68-46.85s19.12-37.16 28.87-37.81 15.17.59 22.08 1.48z" fill="#feb546"/><path d="m899.78 1027.85c-11.27-9.3-28.95-5.44-39-5.54v86.48a65.38 65.38 0 0 0 15.22-1.79c11.56-3.15 24.33-13.89 32.24-33.67 7.06-17.65 2.33-36.57-8.46-45.48z" fill="#f0e6da"/><path d="m845.41 1028.06c2.23 1.37 7.75 2.72 14.69-.39s6.72-3.87 4.88-3.87c-4 0-8.42 3.21-10.86 3.58s-4.95 1.42-8.71.68z" fill="#c4c4c4"/><path d="m862.62 1008.68c-1.3.26-4 6.18-4.53 11.09-.8 7.29-.42 8.83-.82 9-.86.28-1.25.29-1.17.31s.15-6.27.5-12.11c.31-5.09 2.92-11.53 4.12-12.63.88-.84 2.58 4.2 1.9 4.34z" fill="#9c6228"/><path d="m861.54 1009a22.63 22.63 0 0 0 -3.25 7.09c-.86 3-1.21 6.8-2.06 8.86-.09 2.41-.13 4.08-.13 4.08s.31 0 1.17-.31c.4-.13 0-1.67.82-9 .53-4.91 3.23-10.83 4.53-11.09.37-.08 0-1.57-.47-2.81l-.92-.13c-.17 1.71.77 2.88.31 3.31z" fill="#e6e6e6"/><path d="m860.73 1004.3c-.39.45 1.13 4.37 1.89 4.38s-.98-5.54-1.89-4.38z" fill="#c27a31"/><path d="m863.61 1107.43a30.45 30.45 0 0 0 -7.76-.45c-2.57.29-4.64-1-2.49-1.62 4.88-1.36 10.25 2.07 10.25 2.07z" fill="#bdbdbd"/><path d="m891.77 1046.54c8.82 1.13 28.12-4.33 40 5.46 10.33 8.52 14.84 26.61 8.1 43.47-7.56 18.91-19.77 29.18-30.82 32.2-9 2.45-27.14 2.63-35.69-1.59-9-4.45-28.6-21.08-30.29-44.81s18.29-35.52 27.61-36.15 14.52.57 21.09 1.42z" fill="#02ccc0"/><path d="m939.85 1095.47c6.74-16.86 2.23-35-8.1-43.47-11.34-9.37-29.47-4.78-38.75-5.36v82.76a65.06 65.06 0 0 0 16-1.73c11.08-3.02 23.29-13.29 30.85-32.2z" fill="#cce5f0"/><path d="m879.77 1052.2c2.13 1.31 7.41 2.6 14.05-.37s6.42-3.7 4.66-3.71c-3.81 0-8.05 3.08-10.38 3.43s-4.73 1.36-8.33.65z" fill="#c4c4c4"/><path d="m896.23 1033.67c-1.25.25-3.82 5.91-4.34 10.61-.76 7-.4 8.43-.78 8.56-.82.27-1.19.28-1.12.3s.14-6 .48-11.58c.3-4.87 2.79-11 3.94-12.08.84-.76 2.47 4.05 1.82 4.19z" fill="#9c6228"/><path d="m895.19 1034a22 22 0 0 0 -3.1 6.78c-.83 2.9-1.16 6.5-2 8.47-.08 2.31-.12 3.91-.12 3.91s.3 0 1.12-.3c.38-.13 0-1.6.78-8.56.52-4.7 3.09-10.36 4.34-10.61.35-.07 0-1.5-.46-2.69l-.88-.12c-.13 1.57.73 2.68.32 3.12z" fill="#e6e6e6"/><path d="m894.42 1029.48c-.38.43 1.08 4.18 1.81 4.19s-.94-5.3-1.81-4.19z" fill="#c27a31"/><path d="m897.17 1128.09a29.25 29.25 0 0 0 -7.42-.43c-2.46.28-4.43-1-2.38-1.55 4.63-1.3 9.8 1.98 9.8 1.98z" fill="#bdbdbd"/><path d="m815 1050.89c9.08 1.18 28.93-4.45 41.14 5.62 10.62 8.77 15.27 27.38 8.33 44.73-7.77 19.45-20.34 30-31.7 33.12-9.27 2.53-27.93 2.71-36.73-1.63-9.26-4.58-29.42-21.69-31.16-46.09s18.82-36.55 28.4-37.2 14.96.56 21.72 1.45z" fill="#ff5b7e"/><path d="m856.13 1056.51c-11.67-9.63-30.32-4.91-39.87-5.5v85.14a67.05 67.05 0 0 0 16.5-1.79c11.36-3.1 23.93-13.67 31.7-33.12 6.94-17.35 2.29-35.96-8.33-44.73z" fill="#f0ccda"/><path d="m802.64 1056.72c2.2 1.35 7.63 2.67 14.46-.38s6.61-3.81 4.8-3.81c-3.93 0-8.29 3.16-10.68 3.52s-4.87 1.4-8.58.67z" fill="#c4c4c4"/><path d="m819.58 1037.66c-1.28.26-3.93 6.08-4.46 10.91-.78 7.17-.41 8.68-.8 8.81-.85.27-1.23.29-1.15.31s.14-6.17.49-11.92c.3-5 2.87-11.34 4.05-12.42.87-.79 2.54 4.17 1.87 4.31z" fill="#9c6228"/><path d="m818.52 1038a22.13 22.13 0 0 0 -3.2 7c-.85 3-1.19 6.68-2 8.71-.08 2.37-.12 4-.12 4s.3 0 1.15-.31c.39-.13 0-1.64.8-8.81.53-4.83 3.18-10.65 4.46-10.91.36-.08 0-1.55-.47-2.77l-.9-.12c-.24 1.61.69 2.76.28 3.21z" fill="#e6e6e6"/><path d="m817.72 1033.35c-.38.44 1.11 4.3 1.86 4.31s-.96-5.45-1.86-4.31z" fill="#c27a31"/><path d="m820.55 1134.8a29.67 29.67 0 0 0 -7.63-.44c-2.53.28-4.57-1-2.45-1.6 4.8-1.33 10.08 2.04 10.08 2.04z" fill="#bdbdbd"/><rect fill="#daeef7" height="383.4" rx="22.65" width="215.53" x="1024.76" y="878.45"/><path d="m1160.85 986.25c-11.5 94.22-14.1 184.57-42.27 190.72-17.68 3.86-28.3-5.53-28.3-5.53s-17.54-11.77 7.22-76.14 45.58-110.53 49.37-118.78c4-8.64 10-18 12.11-17.47s3.28 9.18 2.81 15.19z" fill="#ff5b7e"/><path d="m1118.58 1177c28.17-6.15 30.77-96.5 42.27-190.72l.94-12c.47-6-.7-14.69-2.81-15.19l-52.35 218.68a37.8 37.8 0 0 0 11.95-.77z" fill="#f0ccda"/><g fill="#a8a8a8"><path d="m1112 1100.21a8 8 0 0 1 -2.3.24 7.17 7.17 0 0 1 -2.23-.65 7.81 7.81 0 0 1 2.31-.23 7.18 7.18 0 0 1 2.22.64z"/><path d="m1135.12 1117.46a8.75 8.75 0 0 1 -2.51.48 9 9 0 0 1 -2.53-.41 8.85 8.85 0 0 1 2.51-.48 9.38 9.38 0 0 1 2.53.41z"/><path d="m1100.68 1134a11.45 11.45 0 0 1 -6.32-.09 14.54 14.54 0 0 1 3.17-.39 14.09 14.09 0 0 1 3.15.48z"/><path d="m1101.08 1155.53a9.09 9.09 0 0 1 -2.56.46 8.86 8.86 0 0 1 -2.57-.43 9.51 9.51 0 0 1 2.56-.46 9.26 9.26 0 0 1 2.57.43z"/><path d="m1130.46 1163.49a10.08 10.08 0 0 1 -5.78 1.12 11.43 11.43 0 0 1 2.8-1 11.64 11.64 0 0 1 2.98-.12z"/><path d="m1120.39 1142.73a6.6 6.6 0 0 1 -2.46.26 5.07 5.07 0 0 1 -2.3-.93s1.23 0 2.41 0a11.64 11.64 0 0 1 2.35.67z"/><path d="m1141.23 1082a9.73 9.73 0 0 1 -2.59.44 9.51 9.51 0 0 1 -2.6-.43 9.11 9.11 0 0 1 2.59-.45 9.32 9.32 0 0 1 2.6.44z"/><path d="m1150 1059.31a8.36 8.36 0 0 1 -2.42-.46 8.51 8.51 0 0 1 -2.1-1.28 6.75 6.75 0 0 1 4.52 1.74z"/><path d="m1115.88 1078a8 8 0 0 1 -2.33.38 7.69 7.69 0 0 1 -2.31-.49 7.37 7.37 0 0 1 2.33-.39 7.54 7.54 0 0 1 2.31.5z"/><path d="m1121.79 1056.49a9.72 9.72 0 0 1 -2.67.42 10.22 10.22 0 0 1 -2.66-.46 9.81 9.81 0 0 1 2.67-.42 10.22 10.22 0 0 1 2.66.46z"/><path d="m1143.66 1044.84a12.64 12.64 0 0 1 -6.61-.2 14.79 14.79 0 0 1 3.32-.34 15.44 15.44 0 0 1 3.29.54z"/><path d="m1145.68 1022.21a11.55 11.55 0 0 1 -2.94.16 11.41 11.41 0 0 1 -2.86-.72 9.83 9.83 0 0 1 5.8.56z"/><path d="m1143 1001.44a7.23 7.23 0 0 1 -4.66-1.79 8.88 8.88 0 0 1 2.49.48 9.08 9.08 0 0 1 2.17 1.31z"/><path d="m1156.68 978a2.13 2.13 0 0 1 -1.18 0 2.1 2.1 0 0 1 -.86-.81 2.14 2.14 0 0 1 1.18 0c.48.24.89.7.86.81z"/><path d="m1157.35 995.94a4.32 4.32 0 0 1 -1.71-.19.89.89 0 1 1 1.71.19z"/><path d="m1153.28 1033.49a5.66 5.66 0 0 1 -2-.29 1 1 0 1 1 2 .29z"/><path d="m1130.08 1034.94a9.45 9.45 0 0 1 -2.6.12 8.84 8.84 0 0 1 -2.5-.75 9.65 9.65 0 0 1 2.6-.13 9.05 9.05 0 0 1 2.5.76z"/><path d="m1138.77 1134.92a10 10 0 0 1 -2.58.76 10.27 10.27 0 0 1 -2.68-.11 9.81 9.81 0 0 1 2.58-.77 9.58 9.58 0 0 1 2.68.12z"/><path d="m1146.39 1102.07a9.6 9.6 0 0 1 -2.64.27 9.25 9.25 0 0 1 -2.58-.61 10.14 10.14 0 0 1 2.64-.27 9.54 9.54 0 0 1 2.58.61z"/><path d="m1098.93 1115.92a10.39 10.39 0 0 1 -2.67.41 9.77 9.77 0 0 1 -2.66-.46 9.81 9.81 0 0 1 2.67-.42 9.48 9.48 0 0 1 2.66.47z"/><path d="m1088.54 1149a5.35 5.35 0 0 1 -4.25 0 5.35 5.35 0 0 1 4.25 0z"/></g><rect fill="#ff5b7e" height="28.7" rx="5.61" width="44.78" x="447.93" y="1049.94"/><path d="m485.21 1063.17h-23.33l6.92-6.43-1.54-1.65-9.9 9.21 9.9 9.2 1.54-1.65-6.92-6.43h23.33z" fill="#fff"/><rect fill="#ff5b7e" height="28.7" rx="5.61" transform="matrix(-1 0 0 -1 2486.38 2128.59)" width="44.78" x="1220.8" y="1049.94"/><path d="m1228.3 1063.17h23.33l-6.91-6.43 1.53-1.65 9.9 9.21-9.9 9.2-1.53-1.65 6.92-6.43h-23.34z" fill="#fff"/><rect fill="#ff5b7e" height="44.68" rx="19.47" width="236.37" x="738.77" y="1341.25"/><path d="m812 1367.08a5.57 5.57 0 0 1 -.23 1.67 4.93 4.93 0 0 1 -.64 1.37 4.88 4.88 0 0 1 -1 1.07 5.72 5.72 0 0 1 -1.32.77 7.16 7.16 0 0 1 -1.57.47 10.09 10.09 0 0 1 -1.93.16h-5a1.07 1.07 0 0 1 -.64-.23 1 1 0 0 1 -.31-.81v-17.14a1 1 0 0 1 .31-.81 1.07 1.07 0 0 1 .64-.23h4.37a10 10 0 0 1 2.82.33 5 5 0 0 1 1.84 1 3.76 3.76 0 0 1 1.1 1.53 5.28 5.28 0 0 1 .37 2 5 5 0 0 1 -.16 1.3 4.36 4.36 0 0 1 -.48 1.15 3.82 3.82 0 0 1 -.8 1 4.59 4.59 0 0 1 -1.11.68 4.59 4.59 0 0 1 2.67 1.54 4.64 4.64 0 0 1 .8 1.43 5.19 5.19 0 0 1 .27 1.75zm-3.84-8.6a3.78 3.78 0 0 0 -.2-1.26 2.38 2.38 0 0 0 -.6-1 2.66 2.66 0 0 0 -1.09-.6 6 6 0 0 0 -1.76-.21h-2.64v6.22h2.91a4.21 4.21 0 0 0 1.6-.26 2.69 2.69 0 0 0 1-.7 2.61 2.61 0 0 0 .59-1 4.13 4.13 0 0 0 .21-1.19zm1.15 8.75a4 4 0 0 0 -.27-1.52 2.92 2.92 0 0 0 -.8-1.1 3.57 3.57 0 0 0 -1.32-.67 7 7 0 0 0 -2-.23h-3.06v6.77h3.71a5.05 5.05 0 0 0 1.53-.21 3.32 3.32 0 0 0 1.14-.62 2.78 2.78 0 0 0 .78-1 3.32 3.32 0 0 0 .31-1.42z" fill="#fff"/><path d="m830.35 1365.49a8.88 8.88 0 0 1 -.51 3.12 6.48 6.48 0 0 1 -1.47 2.33 6.21 6.21 0 0 1 -2.31 1.44 9.1 9.1 0 0 1 -3.11.49 8.8 8.8 0 0 1 -2.89-.46 6.26 6.26 0 0 1 -2.25-1.36 6.05 6.05 0 0 1 -1.44-2.25 9 9 0 0 1 -.5-3.12v-11.92a.34.34 0 0 1 .27-.35 1.41 1.41 0 0 1 .38-.09 3.62 3.62 0 0 1 .63 0 3.47 3.47 0 0 1 .6 0 1.59 1.59 0 0 1 .4.09.38.38 0 0 1 .2.14.37.37 0 0 1 .06.21v11.61a7.72 7.72 0 0 0 .32 2.33 4.49 4.49 0 0 0 .95 1.66 3.86 3.86 0 0 0 1.48 1 5.27 5.27 0 0 0 2 .34 5.55 5.55 0 0 0 2-.33 3.73 3.73 0 0 0 1.47-1 4.43 4.43 0 0 0 .92-1.62 7.25 7.25 0 0 0 .32-2.26v-11.74a.34.34 0 0 1 .27-.35 1.5 1.5 0 0 1 .39-.09 4.67 4.67 0 0 1 1.22 0 1.41 1.41 0 0 1 .38.09.37.37 0 0 1 .21.14.31.31 0 0 1 .07.21z" fill="#fff"/><path d="m846.1 1371.53v.47a1.16 1.16 0 0 1 -.11.33.58.58 0 0 1 -.17.2.39.39 0 0 1 -.21.06h-9.23a1 1 0 0 1 -.64-.23 1 1 0 0 1 -.31-.81v-17.14a.93.93 0 0 1 .31-.81 1 1 0 0 1 .64-.23h9.12a.38.38 0 0 1 .37.25 1.75 1.75 0 0 1 .1.34 3.26 3.26 0 0 1 0 .5 3 3 0 0 1 0 .46 1.45 1.45 0 0 1 -.1.33.45.45 0 0 1 -.15.18.43.43 0 0 1 -.22.06h-7.5v6h6.44a.36.36 0 0 1 .22.07.51.51 0 0 1 .16.19.75.75 0 0 1 .1.32 3.48 3.48 0 0 1 0 .49 3 3 0 0 1 0 .46.86.86 0 0 1 -.1.32.52.52 0 0 1 -.16.17.54.54 0 0 1 -.22 0h-6.44v6.87h7.62a.39.39 0 0 1 .21.06.64.64 0 0 1 .17.19 1.06 1.06 0 0 1 .11.33c-.02.21-.01.37-.01.57z" fill="#fff"/><path d="m871.66 1371.53a1.13 1.13 0 0 1 -.1.51 1 1 0 0 1 -.62.53 1.34 1.34 0 0 1 -.4.06h-.84a2.87 2.87 0 0 1 -.7-.08 1.43 1.43 0 0 1 -.57-.3 3.07 3.07 0 0 1 -.54-.58 8.18 8.18 0 0 1 -.57-1l-5.86-10.93c-.31-.57-.62-1.16-.93-1.78s-.6-1.22-.87-1.8v2.18s0 1.48 0 2.21v11.6a.36.36 0 0 1 -.06.2.34.34 0 0 1 -.21.15l-.39.09a4.83 4.83 0 0 1 -1.24 0l-.38-.09a.34.34 0 0 1 -.21-.15.36.36 0 0 1 -.06-.2v-17.73a1 1 0 0 1 .34-.85 1.17 1.17 0 0 1 .73-.25h1.26a3.09 3.09 0 0 1 .74.07 1.67 1.67 0 0 1 .54.25 1.93 1.93 0 0 1 .46.48 6.47 6.47 0 0 1 .47.76l4.5 8.44.81 1.5.74 1.45.71 1.4c.24.46.47.93.7 1.39 0-.78 0-1.6 0-2.44s0-1.66 0-2.44v-10.38a.33.33 0 0 1 .06-.19.53.53 0 0 1 .21-.16 2.1 2.1 0 0 1 .4-.1 5.64 5.64 0 0 1 .63 0 5.44 5.44 0 0 1 .6 0 2.18 2.18 0 0 1 .39.1.56.56 0 0 1 .2.16.33.33 0 0 1 .06.19z" fill="#fff"/><path d="m892.87 1362.76a14.79 14.79 0 0 1 -.55 4.2 8.57 8.57 0 0 1 -1.64 3.18 7.13 7.13 0 0 1 -2.74 2 9.72 9.72 0 0 1 -3.85.71 9.94 9.94 0 0 1 -3.75-.65 6.55 6.55 0 0 1 -2.61-1.88 8 8 0 0 1 -1.54-3 16.15 16.15 0 0 1 -.5-4.21 14.43 14.43 0 0 1 .55-4.13 8.46 8.46 0 0 1 1.65-3.15 7.21 7.21 0 0 1 2.74-2 11 11 0 0 1 7.55-.06 6.61 6.61 0 0 1 2.62 1.86 7.92 7.92 0 0 1 1.56 3 15.23 15.23 0 0 1 .51 4.13zm-2.7.17a15.13 15.13 0 0 0 -.29-3 7.12 7.12 0 0 0 -1-2.44 4.77 4.77 0 0 0 -1.81-1.61 6 6 0 0 0 -2.79-.58 5.74 5.74 0 0 0 -2.78.62 5.29 5.29 0 0 0 -1.84 1.67 7 7 0 0 0 -1 2.43 13.7 13.7 0 0 0 -.3 2.92 16.72 16.72 0 0 0 .28 3.11 7.14 7.14 0 0 0 1 2.46 4.54 4.54 0 0 0 1.79 1.6 6 6 0 0 0 2.81.58 5.77 5.77 0 0 0 2.76-.69 5 5 0 0 0 1.84-1.68 7.3 7.3 0 0 0 1-2.46 14.08 14.08 0 0 0 .33-2.93z" fill="#fff"/><path d="m915 1372a1 1 0 0 1 -.17.34.87.87 0 0 1 -.33.19 2.88 2.88 0 0 1 -.51.1q-.32 0-.75 0t-.78 0a2.79 2.79 0 0 1 -.53-.1.71.71 0 0 1 -.31-.19 1 1 0 0 1 -.17-.34l-4-14.51-3.78 14.51a.82.82 0 0 1 -.15.34.74.74 0 0 1 -.3.19 2.43 2.43 0 0 1 -.5.1q-.3 0-.78 0t-.81 0a2.91 2.91 0 0 1 -.54-.1.61.61 0 0 1 -.47-.53l-5.12-17.72a3.18 3.18 0 0 1 -.1-.54.38.38 0 0 1 .12-.3.86.86 0 0 1 .41-.13 7.56 7.56 0 0 1 .76 0h.73a1.55 1.55 0 0 1 .4.08.38.38 0 0 1 .2.17 1.25 1.25 0 0 1 .08.27l4.32 16.09 4.1-16.07a1.38 1.38 0 0 1 .11-.27.48.48 0 0 1 .22-.17 1.67 1.67 0 0 1 .42-.09 7.1 7.1 0 0 1 .72 0 5.62 5.62 0 0 1 .66 0 1.59 1.59 0 0 1 .4.09.41.41 0 0 1 .21.17.73.73 0 0 1 .11.27l4.41 16.07 4.23-16.08a2.56 2.56 0 0 1 .09-.26.33.33 0 0 1 .18-.17 1.59 1.59 0 0 1 .4-.09 6.47 6.47 0 0 1 .69 0 4.45 4.45 0 0 1 .71 0 .7.7 0 0 1 .38.14.37.37 0 0 1 .11.3 3.81 3.81 0 0 1 -.08.53z" fill="#fff"/><path d="m1381.67 1545.59c-2.27-3-47.52-109.37-49.78-133.5s-15.84-230-40-254.19-47.52 5.28-47.52 5.28-19.61-80.71-67.13-36.2c0 0-29.41-51.29-52-43s-13.58 78.45-13.58 78.45-1.18 19.46-15.08-9c-19.89-40.77-71.87-218.25-103.34-209.69-48.2 13.12 59.59 304.72 59.59 304.72s-51.52-77.6-90.28-51.5a9.3 9.3 0 0 0 -1.09 14.45c12.57 11.89 37.73 38.4 49.13 69.49 14.12 38.48 0 87.49 122.19 169l40 113.14s150.34 48 208.69-17.1c.17-.19.25-.27.2-.35z" fill="#ffc0bb"/><path d="m363.49 1188.66v81.76s-64.71 96.31-65.25 79.52-16.25-96.08-9.75-104.09 57.4-74.06 57.4-74.06z" fill="#fc8d84"/><path d="m462.15 1140.34c-49.32 2.11-51.27 84.54-80.87 117-14.7 16.11-28.44 17.26-38.93 13.87-16-5.17-23.6-23.41-16.7-38.75 10.58-23.54 37.84-43.75 37.84-43.75v-58.84l-83.21 73.7a64 64 0 0 0 -20.57 36.43c-20.5 112.41 17.86 306.21 17.86 306.21s73.78 29.3 155 0l-20.36-92.78c45.25-47.52 39.6-157.26 41.86-202.52 1.73-34.53 12-80.27 16.8-100a8.56 8.56 0 0 0 -8.72-10.57z" fill="#ffc0bb"/><path d="m467.88 1152.32-5.65 20.68a6 6 0 0 1 -5.54 4.45c-4.9.24-12.42-.22-14.85-4.88-3.71-7.1 8-21.14 11.81-24.2s15.43-.43 14.23 3.95z" fill="#ff5b7e" opacity=".3"/><path d="m965.57 1209.46 15.32 15a6.06 6.06 0 0 0 7 1c4.35-2.28 10.61-6.49 10.35-11.73-.4-8-17.59-14.2-22.43-14.91s-13.48 7.47-10.24 10.64z" fill="#ff5b7e" opacity=".3"/><path d="m993.28 995.25s16.79 3 26.26-6.77c0 0-9.2-42.65-23.28-38.72-16.07 4.49-2.98 45.49-2.98 45.49z" fill="#ff5b7e" opacity=".3"/><path d="m477.04 1280.9h181.26v8.33h-181.26z" fill="#daeef7"/><path d="m477.04 1300.19h181.26v8.33h-181.26z" fill="#daeef7"/><path d="m477.04 1319.48h181.26v8.33h-181.26z" fill="#daeef7"/><path d="m766.32 1280.9h181.26v8.33h-181.26z" fill="#daeef7"/><path d="m766.32 1300.19h181.26v8.33h-181.26z" fill="#daeef7"/><path d="m1053.15 264.28-6.88 51.87 36.84-26.91 112.77-57.61-87.22 8s-44.44 10.79-46.85 13-8.66 11.65-8.66 11.65z" fill="#e03268"/><path d="m1014.52 232.95 181.36-1.32-142.73 32.65z" fill="#ff5b7e"/><path d="m1111.45 316.46-47.52-38.17 131.95-46.66z" fill="#ff5b7e"/><path d="m475.46 675.28c-5.83-.16-10.72-1.14-14.53-2.92l1.34-2.88c3.42 1.6 7.89 2.48 13.28 2.63z" fill="#07085b"/><path d="m504.58 671.53-.73-3.09a275.31 275.31 0 0 0 27.67-8.29l1.05 3a278.4 278.4 0 0 1 -27.99 8.38zm55.15-19-1.26-2.91c9.31-4 18.36-8.29 26.19-12.37l1.46 2.82c-7.89 4.06-17.02 8.36-26.39 12.41zm50.58-29.19-2.26-2.23a105.44 105.44 0 0 0 17.07-22.85l2.78 1.54a109 109 0 0 1 -17.59 23.49zm60.15-11.7a97 97 0 0 1 -29.21-3.52l.86-3.06a93.65 93.65 0 0 0 28.25 3.41zm29-5.07-1-3a98.88 98.88 0 0 0 25.54-12.67l1.81 2.6a101.77 101.77 0 0 1 -26.39 13.02zm-84.75-11.14a84.28 84.28 0 0 1 -20.82-20.84l2.62-1.79a81 81 0 0 0 20 20zm132.47-22.09-2.48-2a184.54 184.54 0 0 0 15.78-24.06l2.76 1.57a187.19 187.19 0 0 1 -16.1 24.44zm-108.46-.87-3.07-.77a104.45 104.45 0 0 0 3.1-28.35l3.17-.1a107.59 107.59 0 0 1 -3.24 29.17zm-56-25.18c-.29-1.82-.5-3.68-.62-5.51 0-.47 0-1-.07-1.42a47.48 47.48 0 0 1 4.17-22.43l2.86 1.37a44.34 44.34 0 0 0 -3.86 20.92c0 .45 0 .9.07 1.35.11 1.74.31 3.49.59 5.22zm194.48-23.92-2.8-1.51 3.94-7.31q4.92-9.12 9.87-18.26l2.79 1.52q-5 9.12-9.86 18.24zm-145-7.24c-3.78-6.61-8.77-10.74-14.85-12.28a20.29 20.29 0 0 0 -7.31-.44l-.37-3.15a23.25 23.25 0 0 1 8.46.52c6.84 1.73 12.66 6.49 16.82 13.78zm172.8-43.77-2.75-1.56c5.19-9.19 10-17.4 14.7-25.11l2.71 1.65c-4.66 7.66-9.47 15.87-14.66 25.02zm30.27-49.43-2.63-1.78c5.64-8.36 11.37-16.31 17-23.65l2.51 1.94c-5.59 7.28-11.28 15.18-16.88 23.49zm35.41-45.7-2.35-2.13c6.67-7.37 13.59-14.34 20.56-20.72l2.14 2.35c-6.9 6.27-13.74 13.2-20.35 20.5zm42.64-38.83-1.87-2.56a269.24 269.24 0 0 1 24.43-16l1.59 2.74a271.66 271.66 0 0 0 -24.15 15.82zm49.86-28.93-1.29-2.9a274.43 274.43 0 0 1 27.28-10.43l1 3a269 269 0 0 0 -26.99 10.33z" fill="#07085b"/><path d="m1018.11 291.78-.64-3.1c4.67-1 9.43-1.81 14.13-2.52l.47 3.13c-4.64.71-9.34 1.54-13.96 2.49z" fill="#07085b"/><path d="m1267 503a47.7 47.7 0 0 0 -58.5-35.43 70.24 70.24 0 0 0 -84.5-37.33 86.52 86.52 0 0 0 -155.42 15.12 59.35 59.35 0 0 0 -88.21 51.86 57.55 57.55 0 0 0 .29 5.76z" fill="#daeef7" opacity=".5"/><path d="m1508.37 335.9a27.55 27.55 0 0 0 -33.79-20.47 40.56 40.56 0 0 0 -48.79-21.55 50 50 0 0 0 -89.78 8.73 34.29 34.29 0 0 0 -51 30c0 1.12.06 2.23.16 3.33z" fill="#daeef7" opacity=".5"/><path d="m974.86 200.47a12.44 12.44 0 0 0 -15.25-9.24 18.3 18.3 0 0 0 -16.61-10.55 18.53 18.53 0 0 0 -5.45.82 22.56 22.56 0 0 0 -40.52 3.94 15.48 15.48 0 0 0 -23 13.53 14.78 14.78 0 0 0 .07 1.5z" fill="#daeef7" opacity=".5"/><path d="m671 281.05a27.55 27.55 0 0 1 33.79-20.47 40.55 40.55 0 0 1 48.79-21.58 50 50 0 0 1 89.78 8.73 34.29 34.29 0 0 1 50.95 30 33.16 33.16 0 0 1 -.16 3.33z" fill="#daeef7" opacity=".5"/><path d="m957.46 805.35h156.29a0 0 0 0 1 0 0v19.6a61.76 61.76 0 0 1 -61.75 61.75h-32.78a61.76 61.76 0 0 1 -61.76-61.76v-19.6a0 0 0 0 1 0 0z" fill="#e03268"/><path d="m801.17 805.35h156.29a0 0 0 0 1 0 0v19.6a61.76 61.76 0 0 1 -61.76 61.75h-32.78a61.76 61.76 0 0 1 -61.76-61.76v-19.6a0 0 0 0 1 .01.01z" fill="#90c5de"/><path d="m644.87 805.35h156.3a0 0 0 0 1 0 0v19.6a61.76 61.76 0 0 1 -61.76 61.76h-32.78a61.76 61.76 0 0 1 -61.76-61.76v-19.6a0 0 0 0 1 0 0z" fill="#e03268"/><path d="m488.58 805.35h156.29a0 0 0 0 1 0 0v19.6a61.76 61.76 0 0 1 -61.76 61.76h-32.78a61.76 61.76 0 0 1 -61.76-61.76v-19.6a0 0 0 0 1 .01 0z" fill="#90c5de"/><path d="m332.28 805.35h156.3a0 0 0 0 1 0 0v19.6a61.76 61.76 0 0 1 -61.76 61.76h-32.82a61.76 61.76 0 0 1 -61.76-61.76v-19.6a0 0 0 0 1 .04 0z" fill="#e03268"/><path d="m1426 805.35h156.29a0 0 0 0 1 0 0v19.6a61.76 61.76 0 0 1 -61.76 61.76h-32.78a61.76 61.76 0 0 1 -61.75-61.76v-19.6a0 0 0 0 1 0 0z" fill="#90c5de"/><path d="m1269.69 805.35h156.31a0 0 0 0 1 0 0v19.6a61.76 61.76 0 0 1 -61.76 61.76h-32.78a61.76 61.76 0 0 1 -61.76-61.76v-19.6a0 0 0 0 1 -.01 0z" fill="#e03268"/><path d="m1113.75 805.35h156.25a0 0 0 0 1 0 0v19.6a61.76 61.76 0 0 1 -61.76 61.76h-32.78a61.76 61.76 0 0 1 -61.76-61.76v-19.6a0 0 0 0 1 .05 0z" fill="#90c5de"/><path d="m176 805.35h156.3a0 0 0 0 1 0 0v19.6a61.76 61.76 0 0 1 -61.76 61.76h-32.8a61.76 61.76 0 0 1 -61.74-61.76v-19.6a0 0 0 0 1 0 0z" fill="#90c5de"/><path d="m934.87 687.14h-111.12l-22.59 118.21h156.3z" fill="#daeef7"/><path d="m823.75 687.14h-111.12l-67.76 118.21h156.29z" fill="#ff7895"/><path d="m712.63 687.14h-111.13l-112.93 118.21h156.3z" fill="#daeef7"/><path d="m601.5 687.14h-111.12l-158.1 118.21h156.29z" fill="#ff7895"/><path d="m490.38 687.14h-111.12l-203.28 118.21h156.3z" fill="#daeef7"/><path d="m1378.63 687.14h-111.12l158.47 118.21h156.3z" fill="#daeef7"/><path d="m1268.06 687.14h-111.12l112.75 118.21h156.29z" fill="#ff7895"/><path d="m1156.94 687.14h-111.12l67.94 118.21h156.29z" fill="#daeef7"/><path d="m1045.82 687.14h-111.13l22.77 118.21h156.3z" fill="#ff7895"/></svg>