<svg enable-background="new 0 0 480.01 480.01" viewBox="0 0 480.01 480.01" xmlns="http://www.w3.org/2000/svg"><g fill="#603813"><path d="m264.005 264.005v208h-48v-208"/><path d="m216.005 8.005h48v32h-48z"/><path d="m216.005 136.005h48v32h-48z"/></g><path d="m432.005 136.005h-264v-96h264l40 48z" fill="#29485a"/><path d="m216.005 168.005h-168l-40 48 40 48h264v-96z" fill="#0071bc"/><path d="m41.853 269.125c1.521 1.826 3.775 2.882 6.152 2.88h160v200c0 4.418 3.582 8 8 8h48c4.418 0 8-3.582 8-8v-200h40c4.418 0 8-3.582 8-8v-96c0-4.418-3.582-8-8-8h-40v-16h160c2.377.001 4.631-1.054 6.152-2.88l40-48c2.471-2.966 2.471-7.274 0-10.24l-40-48c-1.521-1.826-3.775-2.881-6.152-2.88h-160v-24c0-4.418-3.582-8-8-8h-48c-4.418 0-8 3.582-8 8v24h-40c-4.418 0-8 3.582-8 8v96c0 4.418 3.582 8 8 8h40v16h-160c-2.377-.001-4.631 1.054-6.152 2.88l-40 48c-2.471 2.966-2.471 7.274 0 10.24zm214.152 194.88h-32v-192h32zm-32-448h32v16h-32zm-48 32h252.248l33.352 40-33.336 40h-252.264zm48 96h32v16h-32zm-172.248 32h252.248v80h-252.248l-33.352-40z"/></svg>